<svg xmlns="http://www.w3.org/2000/svg" xmlns:xlink="http://www.w3.org/1999/xlink" width="422" zoomAndPan="magnify" viewBox="0 0 316.5 146.249994" height="195" preserveAspectRatio="xMidYMid meet" version="1.0"><defs><clipPath id="43c95acd7a"><path d="M 37.886719 80 L 108 80 L 108 108.210938 L 37.886719 108.210938 Z M 37.886719 80 " clip-rule="nonzero"/></clipPath><clipPath id="bc99e52a72"><path d="M 37.886719 78 L 110 78 L 110 108.210938 L 37.886719 108.210938 Z M 37.886719 78 " clip-rule="nonzero"/></clipPath><clipPath id="4b2160c3f9"><path d="M 37.886719 50 L 109 50 L 109 61 L 37.886719 61 Z M 37.886719 50 " clip-rule="nonzero"/></clipPath><clipPath id="b5e408c592"><path d="M 37.886719 48 L 110 48 L 110 63 L 37.886719 63 Z M 37.886719 48 " clip-rule="nonzero"/></clipPath><clipPath id="ad5e2149d9"><path d="M 38 42 L 55 42 L 55 108.210938 L 38 108.210938 Z M 38 42 " clip-rule="nonzero"/></clipPath></defs><g clip-path="url(#43c95acd7a)"><path fill="#000000" d="M -31.125 118.304688 C -31.285156 117.707031 -30.925781 117.085938 -30.324219 116.925781 L 106.25 80.410156 C 106.851562 80.25 107.472656 80.605469 107.632812 81.207031 L 107.878906 82.113281 C 108.039062 82.710938 107.679688 83.335938 107.078125 83.496094 L -29.492188 120.011719 C -30.09375 120.171875 -30.714844 119.8125 -30.875 119.214844 L -31.121094 118.304688 Z M -31.125 118.304688 " fill-opacity="1" fill-rule="nonzero"/></g><g clip-path="url(#bc99e52a72)"><path stroke-linecap="butt" transform="matrix(-0.282453, -0.000000000000000035, 0.000000000000000035, -0.281853, 113.495378, 145.223531)" fill="none" stroke-linejoin="miter" d="M 512.015447 95.506759 C 512.582466 97.627215 511.310131 99.830826 509.180353 100.399052 L 25.651608 229.954731 C 23.52183 230.522958 21.322904 229.261772 20.755885 227.127457 L 19.884612 223.912126 C 19.317593 221.79167 20.589928 219.5742 22.719706 219.005974 L 506.234621 89.450295 C 508.364399 88.882068 510.563326 90.157113 511.130345 92.277569 L 512.001618 95.506759 Z M 512.015447 95.506759 " stroke="#000000" stroke-width="1" stroke-opacity="1" stroke-miterlimit="4"/></g><g clip-path="url(#4b2160c3f9)"><path fill="#000000" d="M -32.082031 58.511719 C -32.117188 57.894531 -31.636719 57.359375 -31.015625 57.328125 L 107.007812 50.109375 C 107.628906 50.078125 108.164062 50.554688 108.195312 51.175781 L 108.246094 52.113281 C 108.277344 52.734375 107.796875 53.265625 107.175781 53.296875 L -30.847656 60.515625 C -31.46875 60.550781 -32.003906 60.070312 -32.035156 59.449219 L -32.085938 58.511719 Z M -32.082031 58.511719 " fill-opacity="1" fill-rule="nonzero"/></g><g clip-path="url(#b5e408c592)"><path stroke-linecap="butt" transform="matrix(-0.282453, -0.000000000000000035, 0.000000000000000035, -0.281853, 113.495378, 145.223531)" fill="none" stroke-linejoin="miter" d="M 515.40373 307.649333 C 515.528198 309.839084 513.827142 311.737793 511.628215 311.848666 L 22.968641 337.460444 C 20.769714 337.571317 18.875042 335.880497 18.764404 333.676886 L 18.584618 330.350681 C 18.47398 328.14707 20.175036 326.262221 22.373963 326.151347 L 511.033537 300.53957 C 513.232463 300.414837 515.127136 302.119517 515.237774 304.323128 L 515.41756 307.649333 Z M 515.40373 307.649333 " stroke="#000000" stroke-width="1" stroke-opacity="1" stroke-miterlimit="4"/></g><path stroke-linecap="butt" transform="matrix(-0.282453, -0.000000000000000035, 0.000000000000000035, -0.281853, 113.495378, 145.223531)" fill-opacity="1" fill="#000000" fill-rule="nonzero" stroke-linejoin="miter" d="M 77.001384 349.573373 C 64.015271 362.559431 42.980256 362.559431 29.994142 349.573373 L 29.994142 196.581809 C 42.980256 183.595751 64.015271 183.595751 77.001384 196.581809 Z M 77.001384 349.573373 " stroke="#000000" stroke-width="1" stroke-opacity="1" stroke-miterlimit="4"/><path fill="#ffffff" d="M 92.078125 47.773438 C 95.5625 44.296875 101.207031 44.296875 104.691406 47.773438 L 104.691406 88.742188 C 101.207031 92.214844 95.5625 92.214844 92.078125 88.742188 Z M 92.078125 47.773438 " fill-opacity="1" fill-rule="nonzero"/><path stroke-linecap="butt" transform="matrix(-0.282453, -0.000000000000000035, 0.000000000000000035, -0.281853, 113.495378, 145.223531)" fill-opacity="1" fill="#000000" fill-rule="nonzero" stroke-linejoin="miter" d="M 138.00431 349.573373 C 125.018197 362.559431 103.983182 362.559431 90.997068 349.573373 L 90.997068 181.281267 C 103.983182 168.295209 125.018197 168.295209 138.00431 181.281267 Z M 138.00431 349.573373 " stroke="#000000" stroke-width="1" stroke-opacity="1" stroke-miterlimit="4"/><path fill="#ffffff" d="M 74.851562 47.878906 C 78.332031 44.40625 83.980469 44.40625 87.460938 47.878906 L 87.460938 92.941406 C 83.980469 96.417969 78.332031 96.417969 74.851562 92.941406 Z M 74.851562 47.878906 " fill-opacity="1" fill-rule="nonzero"/><path stroke-linecap="butt" transform="matrix(-0.282453, -0.000000000000000035, 0.000000000000000035, -0.281853, 113.495378, 145.223531)" fill-opacity="1" fill="#000000" fill-rule="nonzero" stroke-linejoin="miter" d="M 198.993406 349.573373 C 186.021122 362.559431 164.972278 362.559431 151.999994 349.573373 L 151.999994 164.456214 C 164.972278 151.470156 186.021122 151.470156 198.993406 164.456214 Z M 198.993406 349.573373 " stroke="#000000" stroke-width="1" stroke-opacity="1" stroke-miterlimit="4"/><path fill="#ffffff" d="M 57.621094 48 C 61.101562 44.523438 66.75 44.523438 70.230469 48 L 70.230469 97.566406 C 66.75 101.042969 61.101562 101.042969 57.621094 97.566406 Z M 57.621094 48 " fill-opacity="1" fill-rule="nonzero"/><path fill="#000000" d="M 40.058594 46.695312 C 43.722656 43.035156 49.667969 43.035156 53.332031 46.695312 L 53.332031 104.089844 C 49.667969 107.75 43.722656 107.75 40.058594 104.089844 Z M 40.058594 46.695312 " fill-opacity="1" fill-rule="nonzero"/><g clip-path="url(#ad5e2149d9)"><path stroke-linecap="butt" transform="matrix(-0.282453, -0.000000000000000035, 0.000000000000000035, -0.281853, 113.495378, 145.223531)" fill="none" stroke-linejoin="miter" d="M 259.996332 349.573373 C 247.024048 362.559431 225.975204 362.559431 213.00292 349.573373 L 213.00292 145.94034 C 225.975204 132.954282 247.024048 132.954282 259.996332 145.94034 Z M 259.996332 349.573373 " stroke="#000000" stroke-width="1" stroke-opacity="1" stroke-miterlimit="4"/></g><path fill="#ffffff" d="M 40.386719 48.128906 C 43.871094 44.652344 49.515625 44.652344 53 48.128906 L 53 102.65625 C 49.515625 106.128906 43.871094 106.128906 40.386719 102.65625 Z M 40.386719 48.128906 " fill-opacity="1" fill-rule="nonzero"/><path stroke-linecap="butt" transform="matrix(-0.282453, -0.000000000000000035, 0.000000000000000035, -0.281853, 113.495378, 145.223531)" fill-opacity="1" fill="#000000" fill-rule="nonzero" stroke-linejoin="miter" d="M 57.750404 216.123263 C 57.750404 219.227721 55.399351 221.750093 52.495108 221.750093 C 49.604695 221.750093 47.253642 219.227721 47.253642 216.123263 C 47.253642 213.018805 49.604695 210.496433 52.495108 210.496433 C 55.399351 210.496433 57.750404 213.018805 57.750404 216.123263 Z M 57.750404 216.123263 " stroke="#000000" stroke-width="1" stroke-opacity="1" stroke-miterlimit="4"/><path fill="#ffffff" d="M 97.480469 84.308594 C 97.480469 83.609375 98.011719 83.042969 98.667969 83.042969 C 99.320312 83.042969 99.851562 83.609375 99.851562 84.308594 C 99.851562 85.011719 99.320312 85.578125 98.667969 85.578125 C 98.011719 85.578125 97.480469 85.011719 97.480469 84.308594 Z M 97.480469 84.308594 " fill-opacity="1" fill-rule="nonzero"/><path stroke-linecap="butt" transform="matrix(-0.282453, -0.000000000000000035, 0.000000000000000035, -0.281853, 113.495378, 145.223531)" fill-opacity="1" fill="#000000" fill-rule="nonzero" stroke-linejoin="miter" d="M 57.501469 330.614006 C 57.501469 333.732323 55.150416 336.240835 52.246173 336.240835 C 49.35576 336.240835 47.004707 333.732323 47.004707 330.614006 C 47.004707 327.509548 49.35576 325.001035 52.246173 325.001035 C 55.150416 325.001035 57.501469 327.509548 57.501469 330.614006 Z M 57.501469 330.614006 " stroke="#000000" stroke-width="1" stroke-opacity="1" stroke-miterlimit="4"/><path fill="#ffffff" d="M 97.550781 52.039062 C 97.550781 51.335938 98.082031 50.769531 98.738281 50.769531 C 99.390625 50.769531 99.921875 51.335938 99.921875 52.039062 C 99.921875 52.738281 99.390625 53.304688 98.738281 53.304688 C 98.082031 53.304688 97.550781 52.738281 97.550781 52.039062 Z M 97.550781 52.039062 " fill-opacity="1" fill-rule="nonzero"/><path stroke-linecap="butt" transform="matrix(-0.282453, -0.000000000000000035, 0.000000000000000035, -0.281853, 113.495378, 145.223531)" fill-opacity="1" fill="#000000" fill-rule="nonzero" stroke-linejoin="miter" d="M 116.499085 201.252355 C 116.499085 204.356813 114.148031 206.879185 111.243789 206.879185 C 108.353376 206.879185 106.002322 204.356813 106.002322 201.252355 C 106.002322 198.147897 108.353376 195.625525 111.243789 195.625525 C 114.148031 195.625525 116.499085 198.147897 116.499085 201.252355 Z M 116.499085 201.252355 " stroke="#000000" stroke-width="1" stroke-opacity="1" stroke-miterlimit="4"/><path fill="#ffffff" d="M 80.886719 88.5 C 80.886719 87.800781 81.417969 87.230469 82.074219 87.230469 C 82.726562 87.230469 83.257812 87.800781 83.257812 88.5 C 83.257812 89.199219 82.726562 89.769531 82.074219 89.769531 C 81.417969 89.769531 80.886719 89.199219 80.886719 88.5 Z M 80.886719 88.5 " fill-opacity="1" fill-rule="nonzero"/><path stroke-linecap="butt" transform="matrix(-0.282453, -0.000000000000000035, 0.000000000000000035, -0.281853, 113.495378, 145.223531)" fill-opacity="1" fill="#000000" fill-rule="nonzero" stroke-linejoin="miter" d="M 118.75333 327.12149 C 118.75333 330.225948 116.402277 332.74832 113.498034 332.74832 C 110.593791 332.74832 108.256568 330.225948 108.256568 327.12149 C 108.256568 324.017033 110.593791 321.494661 113.498034 321.494661 C 116.402277 321.494661 118.75333 324.017033 118.75333 327.12149 Z M 118.75333 327.12149 " stroke="#000000" stroke-width="1" stroke-opacity="1" stroke-miterlimit="4"/><path fill="#ffffff" d="M 80.25 53.023438 C 80.25 52.324219 80.78125 51.753906 81.4375 51.753906 C 82.09375 51.753906 82.625 52.324219 82.625 53.023438 C 82.625 53.722656 82.09375 54.292969 81.4375 54.292969 C 80.78125 54.292969 80.25 53.722656 80.25 53.023438 Z M 80.25 53.023438 " fill-opacity="1" fill-rule="nonzero"/><path stroke-linecap="butt" transform="matrix(-0.282453, -0.000000000000000035, 0.000000000000000035, -0.281853, 113.495378, 145.223531)" fill-opacity="1" fill="#000000" fill-rule="nonzero" stroke-linejoin="miter" d="M 179.756256 184.621331 C 179.756256 187.725789 177.405203 190.248161 174.50096 190.248161 C 171.596717 190.248161 169.245664 187.725789 169.245664 184.621331 C 169.245664 181.516873 171.596717 178.994501 174.50096 178.994501 C 177.405203 178.994501 179.756256 181.516873 179.756256 184.621331 Z M 179.756256 184.621331 " stroke="#000000" stroke-width="1" stroke-opacity="1" stroke-miterlimit="4"/><path fill="#ffffff" d="M 63.019531 93.1875 C 63.019531 92.488281 63.550781 91.917969 64.207031 91.917969 C 64.863281 91.917969 65.394531 92.488281 65.394531 93.1875 C 65.394531 93.886719 64.863281 94.457031 64.207031 94.457031 C 63.550781 94.457031 63.019531 93.886719 63.019531 93.1875 Z M 63.019531 93.1875 " fill-opacity="1" fill-rule="nonzero"/><path stroke-linecap="butt" transform="matrix(-0.282453, -0.000000000000000035, 0.000000000000000035, -0.281853, 113.495378, 145.223531)" fill-opacity="1" fill="#000000" fill-rule="nonzero" stroke-linejoin="miter" d="M 178.746686 325.001035 C 178.746686 328.105493 176.395632 330.627865 173.50522 330.627865 C 170.600977 330.627865 168.249923 328.105493 168.249923 325.001035 C 168.249923 321.896577 170.600977 319.374205 173.50522 319.374205 C 176.395632 319.374205 178.746686 321.896577 178.746686 325.001035 Z M 178.746686 325.001035 " stroke="#000000" stroke-width="1" stroke-opacity="1" stroke-miterlimit="4"/><path fill="#ffffff" d="M 63.304688 53.621094 C 63.304688 52.921875 63.835938 52.351562 64.488281 52.351562 C 65.144531 52.351562 65.675781 52.921875 65.675781 53.621094 C 65.675781 54.320312 65.144531 54.890625 64.488281 54.890625 C 63.835938 54.890625 63.304688 54.320312 63.304688 53.621094 Z M 63.304688 53.621094 " fill-opacity="1" fill-rule="nonzero"/><path stroke-linecap="butt" transform="matrix(-0.282453, -0.000000000000000035, 0.000000000000000035, -0.281853, 113.495378, 145.223531)" fill-opacity="1" fill="#000000" fill-rule="nonzero" stroke-linejoin="miter" d="M 239.500677 168.004166 C 239.500677 171.108624 237.149623 173.630996 234.245381 173.630996 C 231.354968 173.630996 229.003914 171.108624 229.003914 168.004166 C 229.003914 164.899708 231.354968 162.377336 234.245381 162.377336 C 237.149623 162.377336 239.500677 164.899708 239.500677 168.004166 Z M 239.500677 168.004166 " stroke="#000000" stroke-width="1" stroke-opacity="1" stroke-miterlimit="4"/><path fill="#ffffff" d="M 46.144531 97.871094 C 46.144531 97.171875 46.675781 96.605469 47.332031 96.605469 C 47.984375 96.605469 48.515625 97.171875 48.515625 97.871094 C 48.515625 98.574219 47.984375 99.140625 47.332031 99.140625 C 46.675781 99.140625 46.144531 98.574219 46.144531 97.871094 Z M 46.144531 97.871094 " fill-opacity="1" fill-rule="nonzero"/><path stroke-linecap="butt" transform="matrix(-0.282453, -0.000000000000000035, 0.000000000000000035, -0.281853, 113.495378, 145.223531)" fill-opacity="1" fill="#000000" fill-rule="nonzero" stroke-linejoin="miter" d="M 241.505987 320.385926 C 241.505987 323.490383 239.154934 325.998896 236.250691 325.998896 C 233.346448 325.998896 230.995395 323.490383 230.995395 320.385926 C 230.995395 317.267609 233.346448 314.759096 236.250691 314.759096 C 239.154934 314.759096 241.505987 317.267609 241.505987 320.385926 Z M 241.505987 320.385926 " stroke="#000000" stroke-width="1" stroke-opacity="1" stroke-miterlimit="4"/><path fill="#ffffff" d="M 45.578125 54.921875 C 45.578125 54.222656 46.109375 53.65625 46.765625 53.65625 C 47.421875 53.65625 47.953125 54.222656 47.953125 54.921875 C 47.953125 55.625 47.421875 56.191406 46.765625 56.191406 C 46.109375 56.191406 45.578125 55.625 45.578125 54.921875 Z M 45.578125 54.921875 " fill-opacity="1" fill-rule="nonzero"/><path stroke-linecap="butt" transform="matrix(0.422527, 0, 0, 0.422527, 130.609549, 43.451435)" fill="none" stroke-linejoin="miter" d="M 2.726855 9.211991 C 3.401738 9.211991 4.243031 9.267461 5.250733 9.387646 C 6.26768 9.498585 7.395566 9.554055 8.634393 9.554055 C 9.882464 9.554055 11.010351 9.498585 11.999563 9.387646 C 12.988775 9.267461 13.839312 9.211991 14.54193 9.211991 C 14.828524 9.211991 15.087383 9.258216 15.309263 9.359911 C 15.531142 9.461606 15.642082 9.61877 15.642082 9.840649 C 15.642082 10.062529 15.531142 10.228938 15.309263 10.349123 C 15.087383 10.460063 14.828524 10.515532 14.54193 10.515532 C 14.162886 10.515532 13.737617 10.478553 13.284614 10.413838 C 12.840855 10.358368 12.397096 10.321388 11.953338 10.321388 C 11.315435 10.321388 10.816206 10.413838 10.464897 10.589492 C 10.113588 10.765147 9.854729 11.116456 9.68832 11.652664 C 9.531155 12.170382 9.42946 12.94696 9.383235 13.973152 C 9.337011 14.990099 9.318521 16.339865 9.318521 18.00396 L 9.318521 37.011623 C 9.318521 37.84367 9.327766 38.518553 9.337011 39.036272 C 9.355501 39.544745 9.42946 39.942279 9.549645 40.228873 C 9.679075 40.515467 9.873219 40.709612 10.150568 40.829796 C 10.418672 40.940736 10.797716 40.996206 11.2877 40.996206 L 20.634367 40.996206 C 22.113562 40.996206 23.324654 40.968471 24.276886 40.922246 C 25.238363 40.876021 25.987206 40.718857 26.523414 40.441507 C 27.050377 40.164158 27.420176 39.73889 27.623566 39.156456 C 27.8362 38.555533 27.937895 37.714241 27.937895 36.623334 C 27.937895 36.29976 27.92865 35.920716 27.91016 35.476957 C 27.900915 35.023954 27.87318 34.561705 27.845445 34.062477 C 27.808465 33.563248 27.78073 33.073265 27.76224 32.574036 C 27.74375 32.074808 27.734505 31.631049 27.734505 31.24276 C 27.734505 30.706552 27.81771 30.299773 27.974875 30.022424 C 28.141284 29.75432 28.316939 29.615645 28.511083 29.615645 C 28.991822 29.615645 29.222946 30.077894 29.222946 31.011636 C 29.222946 31.649539 29.167476 32.435361 29.065781 33.359859 C 28.954842 34.293601 28.899372 35.366018 28.899372 36.577109 C 28.899372 37.307462 28.954842 38.04706 29.065781 38.786657 C 29.167476 39.526255 29.222946 40.238118 29.222946 40.940736 C 29.222946 41.587884 29.084271 41.976173 28.788432 42.114847 C 28.511083 42.262767 27.96563 42.336727 27.161317 42.336727 C 26.172105 42.336727 24.970259 42.318237 23.565023 42.281257 C 22.159787 42.253522 20.615877 42.207297 18.933292 42.161072 C 17.259952 42.114847 15.466427 42.077867 13.561963 42.050133 C 11.648254 42.013153 9.68832 42.003908 7.672916 42.003908 C 6.461824 42.003908 5.398652 42.050133 4.492645 42.161072 C 3.577393 42.281257 2.97647 42.336727 2.680631 42.336727 C 2.329322 42.336727 2.014993 42.281257 1.719154 42.161072 C 1.441804 42.050133 1.30313 41.874478 1.30313 41.615619 C 1.30313 41.070166 1.719154 40.802061 2.541956 40.802061 C 2.95798 40.802061 3.457208 40.839041 4.058131 40.894511 C 4.64981 40.959226 5.232243 40.996206 5.814676 40.996206 C 6.545029 40.996206 7.025768 40.876021 7.238402 40.654142 C 7.340097 40.524712 7.441791 40.386038 7.534241 40.228873 C 7.626691 40.062464 7.700651 39.775869 7.746875 39.359846 C 7.802345 38.943822 7.839325 38.342899 7.876305 37.557076 C 7.90404 36.780498 7.92253 35.717327 7.92253 34.367561 L 7.92253 17.375302 C 7.92253 15.748187 7.88555 14.453891 7.820835 13.510903 C 7.75612 12.567916 7.626691 11.865298 7.432546 11.40305 C 7.238402 10.931556 6.979543 10.635717 6.646724 10.515532 C 6.30466 10.386103 5.851656 10.321388 5.287713 10.321388 C 4.834709 10.321388 4.39095 10.358368 3.956437 10.413838 C 3.531168 10.478553 3.105899 10.515532 2.680631 10.515532 C 2.431016 10.515532 2.190647 10.460063 1.941033 10.349123 C 1.700664 10.228938 1.580479 10.062529 1.580479 9.840649 C 1.580479 9.61877 1.700664 9.461606 1.941033 9.359911 C 2.190647 9.258216 2.449506 9.211991 2.726855 9.211991 Z M 33.216774 9.211991 C 33.568083 9.211991 33.993351 9.230481 34.501825 9.267461 C 35.019543 9.304441 35.564997 9.341421 36.14743 9.387646 C 36.720618 9.433871 37.293807 9.470851 37.866995 9.50783 C 38.449428 9.535565 38.957902 9.554055 39.40166 9.554055 C 39.854664 9.554055 40.575772 9.54481 41.574229 9.52632 C 42.563441 9.50783 43.672837 9.48934 44.902419 9.461606 C 46.132 9.424626 47.426296 9.406136 48.785307 9.387646 C 50.144318 9.369156 51.447859 9.350666 52.67744 9.313686 C 53.916267 9.285951 54.988683 9.258216 55.913181 9.248971 C 56.846923 9.221236 57.521806 9.211991 57.937829 9.211991 C 58.862327 9.211991 59.435515 9.350666 59.666639 9.61877 C 59.888519 9.896119 60.008703 10.302898 60.008703 10.848351 C 60.008703 11.745114 59.943988 12.604896 59.823804 13.436944 C 59.722109 14.268991 59.666639 15.101039 59.666639 15.933086 C 59.666639 16.866828 59.722109 17.745101 59.823804 18.558658 C 59.943988 19.372216 60.008703 20.093324 60.008703 20.731227 C 60.008703 21.886848 59.731354 22.469281 59.185901 22.469281 C 58.927041 22.469281 58.742142 22.367587 58.631202 22.164197 C 58.520263 21.951563 58.464793 21.489314 58.464793 20.786697 C 58.464793 20.629532 58.483283 20.231998 58.520263 19.60334 C 58.547998 18.983927 58.566488 18.318289 58.584978 17.615671 C 58.603467 16.913053 58.621957 16.247415 58.658937 15.618757 C 58.686672 14.999344 58.705162 14.592565 58.705162 14.398421 C 58.705162 13.436944 58.640447 12.706591 58.529508 12.198117 C 58.418568 11.680399 58.196689 11.301355 57.86387 11.060986 C 57.521806 10.820616 57.068802 10.672697 56.486369 10.626472 C 55.922426 10.580247 55.155093 10.561757 54.193616 10.561757 L 42.480236 10.561757 C 41.971762 10.561757 41.546494 10.607982 41.232165 10.709677 C 40.908591 10.802127 40.649731 10.996271 40.455587 11.282865 C 40.270688 11.569459 40.141258 11.985483 40.085788 12.549426 C 40.021073 13.11337 39.984093 13.871457 39.984093 14.832934 L 39.984093 23.04247 C 39.984093 23.680373 40.132013 24.077907 40.409362 24.244316 C 40.695956 24.401481 41.121225 24.484685 41.666678 24.484685 L 47.999484 24.484685 C 49.025676 24.484685 49.820744 24.272051 50.375442 23.856027 C 50.930141 23.440004 51.216735 22.765121 51.216735 21.840623 C 51.216735 21.33215 51.179755 20.777452 51.09655 20.195018 C 51.02259 19.594095 50.976365 19.030152 50.976365 18.484698 C 50.976365 17.96698 51.05957 17.615671 51.216735 17.421527 C 51.383144 17.227382 51.540309 17.134932 51.697473 17.134932 C 51.956332 17.134932 52.131987 17.273607 52.224437 17.569446 C 52.316886 17.85604 52.363111 18.207349 52.363111 18.623373 C 52.363111 18.752803 52.344621 19.122602 52.316886 19.73277 C 52.289151 20.333693 52.242927 20.990086 52.196702 21.701949 C 52.150477 22.404567 52.113497 23.07945 52.085762 23.717353 C 52.048782 24.355256 52.039537 24.762035 52.039537 24.965424 C 52.039537 25.187303 52.048782 25.695777 52.085762 26.500089 C 52.113497 27.295157 52.150477 28.136449 52.196702 29.042457 C 52.242927 29.939219 52.289151 30.771266 52.316886 31.538599 C 52.344621 32.296687 52.363111 32.749691 52.363111 32.87912 C 52.363111 33.812862 52.141232 34.275111 51.697473 34.275111 C 51.503329 34.275111 51.327674 34.164171 51.189 33.933047 C 51.050325 33.711168 50.976365 33.276654 50.976365 32.638751 C 50.976365 32.065563 51.02259 31.446149 51.09655 30.771266 C 51.179755 30.105628 51.216735 29.449235 51.216735 28.802087 C 51.216735 27.424587 50.911651 26.527824 50.301482 26.111801 C 49.691314 25.695777 48.748327 25.492387 47.472521 25.492387 L 42.239867 25.492387 C 41.407819 25.492387 40.825386 25.557102 40.492567 25.686532 C 40.159748 25.815961 39.984093 26.24123 39.984093 26.980828 L 39.984093 38.157999 C 39.984093 38.823637 40.030318 39.350601 40.104278 39.729645 C 40.187483 40.090198 40.316912 40.376793 40.501812 40.570937 C 40.695956 40.755836 40.954816 40.876021 41.27839 40.922246 C 41.601964 40.968471 41.999497 40.996206 42.480236 40.996206 L 54.720579 40.996206 C 55.774506 40.996206 56.597309 40.931491 57.188987 40.802061 C 57.78991 40.672632 58.224424 40.441507 58.520263 40.127178 C 58.806857 39.803604 58.991756 39.369091 59.065716 38.814392 C 59.148921 38.250449 59.185901 37.538586 59.185901 36.669559 C 59.185901 35.708082 59.148921 34.783584 59.065716 33.886822 C 58.991756 32.99006 58.945531 32.194992 58.945531 31.492374 C 58.945531 30.493917 59.204391 30.003934 59.712864 30.003934 C 60.230583 30.003934 60.480197 30.429203 60.480197 31.29823 C 60.480197 32.000848 60.424727 32.740446 60.304542 33.507778 C 60.202848 34.265866 60.147378 35.070179 60.147378 35.902226 C 60.147378 36.835968 60.202848 37.677261 60.304542 38.426103 C 60.424727 39.174946 60.480197 39.868319 60.480197 40.515467 C 60.480197 41.125635 60.350767 41.578639 60.073418 41.883723 C 59.805314 42.188807 59.074961 42.336727 57.88236 42.336727 C 57.632745 42.336727 57.096537 42.327482 56.273734 42.318237 C 55.469422 42.299747 54.48021 42.272012 53.324588 42.235032 C 52.178212 42.207297 50.911651 42.179562 49.543395 42.161072 C 48.165894 42.151827 46.797638 42.124092 45.429382 42.096357 C 44.070371 42.059378 42.757585 42.040888 41.509514 42.022398 C 40.270688 42.003908 39.198271 42.003908 38.301509 42.003908 C 36.859293 42.003908 35.759141 42.050133 34.982563 42.161072 C 34.215231 42.281257 33.679022 42.336727 33.355448 42.336727 C 32.939425 42.336727 32.606606 42.281257 32.347746 42.161072 C 32.098132 42.050133 31.968703 41.874478 31.968703 41.615619 C 31.968703 41.070166 32.384726 40.802061 33.216774 40.802061 C 33.697512 40.802061 34.205986 40.839041 34.723704 40.894511 C 35.259913 40.959226 35.823856 40.996206 36.434024 40.996206 C 36.942498 40.996206 37.349276 40.922246 37.65436 40.783571 C 37.959445 40.635652 38.172079 40.376793 38.301509 40.006994 C 38.430938 39.637195 38.514143 39.137966 38.551123 38.500063 C 38.578858 37.852915 38.597348 37.039358 38.597348 36.050146 L 38.597348 14.63879 C 38.597348 13.806742 38.569613 13.13186 38.523388 12.604896 C 38.477163 12.077933 38.375468 11.661909 38.227549 11.356825 C 38.088874 11.051741 37.87624 10.848351 37.589646 10.737412 C 37.293807 10.617227 36.914763 10.561757 36.434024 10.561757 C 35.860836 10.561757 35.287648 10.589492 34.723704 10.663452 C 34.159761 10.728167 33.660532 10.755902 33.216774 10.755902 C 32.80075 10.755902 32.486421 10.681942 32.273787 10.524777 C 32.070397 10.358368 31.968703 10.182713 31.968703 9.988569 C 31.968703 9.78518 32.070397 9.609525 32.273787 9.461606 C 32.486421 9.295196 32.80075 9.211991 33.216774 9.211991 Z M 88.760567 37.104072 C 88.760567 38.287429 88.779057 39.100986 88.825282 39.55399 C 88.871506 39.997749 88.973201 40.302833 89.130366 40.469242 C 89.296775 40.663387 89.740534 40.820551 90.452397 40.940736 C 91.173505 41.070166 92.014797 41.162615 92.976274 41.218085 C 93.937751 41.26431 94.936208 41.292045 95.971645 41.310535 C 97.016327 41.31978 97.913089 41.329025 98.680422 41.329025 C 100.510926 41.329025 102.017857 41.181105 103.191968 40.876021 C 104.38457 40.570937 105.392272 40.099443 106.233564 39.46154 C 107.185796 38.721943 107.879169 37.797445 108.322928 36.678804 C 108.775932 35.550917 109.007056 34.339826 109.007056 33.02704 C 109.007056 31.741989 108.822156 30.595612 108.452358 29.58791 C 108.091804 28.580208 107.463146 27.720426 106.584873 26.999318 C 105.706601 26.27821 104.532489 25.732757 103.053294 25.344468 C 101.583343 24.965424 99.743594 24.77128 97.534045 24.77128 C 95.648071 24.77128 94.113406 24.780525 92.930049 24.799014 C 91.737448 24.808259 90.951625 24.835994 90.572581 24.863729 C 90.193537 24.900709 89.879208 24.937689 89.638839 24.983914 C 89.39847 25.030139 89.21357 25.122588 89.084141 25.252018 C 88.963956 25.381448 88.871506 25.566347 88.825282 25.806716 C 88.779057 26.037841 88.760567 26.37066 88.760567 26.786683 Z M 88.760567 21.692704 C 88.760567 22.210422 88.797547 22.607956 88.871506 22.89455 C 88.954711 23.190389 89.121121 23.393779 89.37998 23.523208 C 89.638839 23.643393 89.999393 23.717353 90.480132 23.745088 C 90.96087 23.754333 91.608018 23.763578 92.403086 23.763578 C 93.900771 23.763578 95.315252 23.745088 96.646528 23.698863 C 97.968559 23.643393 99.068711 23.578678 99.937738 23.523208 C 102.304451 23.319819 104.16269 22.663426 105.521701 21.526294 C 106.889957 20.398408 107.56484 18.863742 107.56484 16.940788 C 107.56484 15.923841 107.407676 15.008589 107.084102 14.213521 C 106.760528 13.409209 106.242809 12.734326 105.521701 12.179627 C 104.809839 11.615684 103.857606 11.18117 102.665005 10.876086 C 101.490894 10.571002 100.048678 10.413838 98.356848 10.413838 C 97.552535 10.413838 96.729733 10.432328 95.897685 10.469308 C 95.065638 10.497042 94.28906 10.524777 93.577197 10.561757 C 92.856089 10.589492 92.218186 10.617227 91.672733 10.654207 C 91.136525 10.681942 90.748236 10.718922 90.526356 10.755902 C 89.629594 10.848351 89.111876 11.079476 88.963956 11.449275 C 88.825282 11.819073 88.760567 12.401507 88.760567 13.196574 Z M 82.168902 9.313686 C 82.843785 9.313686 83.685077 9.369156 84.692779 9.480096 C 85.709726 9.591035 86.837613 9.646505 88.076439 9.646505 C 88.307563 9.646505 88.695852 9.63726 89.25055 9.61877 C 89.814494 9.609525 90.461642 9.58179 91.191994 9.554055 C 91.940837 9.517075 92.70817 9.498585 93.503238 9.480096 C 94.30755 9.461606 95.065638 9.443116 95.768256 9.406136 C 96.470874 9.378401 97.081042 9.359911 97.608005 9.341421 C 98.134969 9.322931 98.477033 9.313686 98.634197 9.313686 C 102.091817 9.313686 104.708144 9.923854 106.464689 11.144191 C 108.221233 12.355282 109.099506 14.204276 109.099506 16.700419 C 109.099506 17.532466 108.988566 18.309044 108.757442 19.030152 C 108.544807 19.75126 108.175008 20.416898 107.65729 21.027066 C 107.148817 21.637234 106.473934 22.191932 105.623396 22.709651 C 104.772859 23.218124 103.728177 23.661883 102.480106 24.050172 L 102.480106 24.142621 C 105.068698 24.558645 107.065612 25.538612 108.452358 27.082523 C 109.848348 28.617188 110.541721 30.641837 110.541721 33.165714 C 110.541721 36.17033 109.607979 38.472328 107.73125 40.053219 C 105.863765 41.643354 103.053294 42.429176 99.318325 42.429176 C 98.828342 42.429176 98.079499 42.419931 97.053307 42.382952 C 96.027115 42.355217 94.936208 42.308992 93.780587 42.253522 C 92.63421 42.207297 91.534058 42.170317 90.480132 42.142582 C 89.426205 42.105602 88.621892 42.096357 88.076439 42.096357 C 86.837613 42.096357 85.709726 42.151827 84.692779 42.253522 C 83.685077 42.373707 82.843785 42.429176 82.168902 42.429176 C 81.891552 42.429176 81.623448 42.382952 81.383079 42.281257 C 81.14271 42.188807 81.022525 42.031643 81.022525 41.809763 C 81.022525 41.550904 81.14271 41.37525 81.383079 41.2828 C 81.623448 41.181105 81.873063 41.13488 82.122677 41.13488 C 82.547945 41.13488 82.973214 41.17186 83.398483 41.236575 C 83.832997 41.30129 84.276755 41.329025 84.729759 41.329025 C 85.330682 41.329025 85.811421 41.255065 86.18122 41.0979 C 86.551018 40.931491 86.819123 40.580182 86.976287 40.034729 C 87.142697 39.48003 87.244391 38.712698 87.290616 37.723486 C 87.336841 36.734274 87.364576 35.384508 87.364576 33.692678 L 87.364576 17.902265 C 87.364576 16.108741 87.327596 14.703505 87.253636 13.695803 C 87.198166 12.688101 87.068737 11.948503 86.865347 11.47701 C 86.680448 10.996271 86.412344 10.700432 86.061035 10.589492 C 85.709726 10.478553 85.247477 10.413838 84.665044 10.413838 C 84.221285 10.413838 83.796017 10.450818 83.379993 10.515532 C 82.963969 10.571002 82.547945 10.607982 82.122677 10.607982 C 81.873063 10.607982 81.623448 10.552512 81.383079 10.441573 C 81.14271 10.330633 81.022525 10.164223 81.022525 9.933099 C 81.022525 9.71122 81.14271 9.554055 81.383079 9.461606 C 81.623448 9.359911 81.891552 9.313686 82.168902 9.313686 Z M 123.743542 24.050172 C 123.743542 24.336766 123.817501 24.558645 123.956176 24.725055 C 124.104096 24.882219 124.529364 24.965424 125.231982 24.965424 L 134.1164 24.965424 C 137.028567 24.965424 139.22887 24.364501 140.708066 23.171899 C 142.196506 21.960808 142.936104 20.111814 142.936104 17.615671 C 142.936104 16.302885 142.677245 15.082549 142.141036 13.973152 C 141.614073 12.85451 140.624861 11.976238 139.15491 11.32909 C 138.350598 10.977781 137.389121 10.728167 136.270479 10.571002 C 135.151837 10.404593 133.829806 10.321388 132.285896 10.321388 C 131.647993 10.321388 130.871415 10.339878 129.956163 10.367613 C 129.050156 10.404593 128.144148 10.450818 127.247386 10.515532 C 126.415339 10.571002 125.78668 10.635717 125.352167 10.691187 C 124.917653 10.737412 124.575589 10.848351 124.31673 11.042496 C 124.030136 11.264375 123.863726 11.624929 123.817501 12.105668 C 123.771277 12.586406 123.743542 13.085635 123.743542 13.631088 Z M 117.124142 9.211991 C 117.336776 9.211991 117.706575 9.230481 118.224293 9.267461 C 118.742012 9.304441 119.287465 9.341421 119.879143 9.387646 C 120.470821 9.433871 121.0625 9.470851 121.654178 9.50783 C 122.255101 9.535565 122.73584 9.554055 123.124128 9.554055 C 123.567887 9.554055 124.22428 9.535565 125.102553 9.50783 C 125.99007 9.470851 126.914567 9.433871 127.894534 9.387646 C 128.865256 9.341421 129.835978 9.304441 130.797455 9.267461 C 131.758933 9.230481 132.544755 9.211991 133.154923 9.211991 C 137.019322 9.211991 139.876018 9.942344 141.715768 11.40305 C 143.564762 12.85451 144.489259 14.897649 144.489259 17.523221 C 144.489259 19.69579 143.869846 21.470824 142.63102 22.829835 C 141.401439 24.188846 139.626404 25.085609 137.324406 25.538612 L 137.324406 25.631062 C 138.480027 25.945391 139.41377 26.361415 140.116387 26.860643 C 140.819005 27.350627 141.364459 27.979285 141.743502 28.737373 C 142.122546 29.486215 142.390651 30.382978 142.529325 31.418415 C 142.677245 32.453851 142.751204 33.664943 142.751204 35.042444 C 142.751204 36.09637 142.778939 37.011623 142.825164 37.80669 C 142.871389 38.583268 142.991574 39.230416 143.185718 39.748135 C 143.379863 40.256608 143.666457 40.635652 144.054746 40.876021 C 144.433789 41.107145 144.960753 41.22733 145.635636 41.22733 C 146.310519 41.22733 146.892952 41.199595 147.401425 41.13488 C 147.919144 41.070166 148.353658 41.042431 148.704967 41.042431 C 148.926846 41.042431 149.15797 41.088655 149.398339 41.19035 C 149.638709 41.2828 149.758893 41.458454 149.758893 41.708069 C 149.758893 41.929948 149.638709 42.096357 149.398339 42.188807 C 149.15797 42.290502 148.926846 42.336727 148.704967 42.336727 C 148.473842 42.336727 148.233473 42.308992 147.974614 42.253522 C 147.725 42.207297 147.373691 42.188807 146.920687 42.188807 C 146.504663 42.188807 146.153354 42.207297 145.86676 42.253522 C 145.580166 42.308992 145.275082 42.336727 144.951508 42.336727 C 144.415299 42.336727 143.934561 42.272012 143.509292 42.142582 C 143.102513 42.013153 142.751204 41.772783 142.455365 41.421474 C 142.242731 41.17186 142.048587 40.866776 141.882177 40.515467 C 141.725013 40.164158 141.595583 39.70191 141.493888 39.128721 C 141.401439 38.546288 141.336724 37.834425 141.290499 36.983888 C 141.235029 36.13335 141.216539 35.088669 141.216539 33.840597 C 141.216539 32.426117 141.105599 31.233515 140.874475 30.244303 C 140.661841 29.255091 140.218082 28.441533 139.561689 27.794385 C 138.905296 27.156482 137.980799 26.694234 136.778952 26.398395 C 135.577106 26.111801 134.005461 25.973126 132.054772 25.973126 L 126.193459 25.973126 C 125.324432 25.973126 124.705019 26.037841 124.31673 26.16727 C 123.937686 26.2967 123.743542 26.592539 123.743542 27.073278 L 123.743542 34.894524 C 123.743542 36.272025 123.771277 37.381422 123.817501 38.213469 C 123.863726 39.045517 123.983911 39.68342 124.178055 40.136423 C 124.3722 40.580182 124.649549 40.876021 125.000858 41.014696 C 125.352167 41.15337 125.814415 41.22733 126.378359 41.22733 C 126.831362 41.22733 127.275121 41.199595 127.70039 41.13488 C 128.134903 41.070166 128.560172 41.042431 128.985441 41.042431 C 129.235055 41.042431 129.475424 41.088655 129.715794 41.19035 C 129.965408 41.2828 130.085593 41.458454 130.085593 41.708069 C 130.085593 41.929948 129.965408 42.096357 129.715794 42.188807 C 129.475424 42.290502 129.216565 42.336727 128.920726 42.336727 C 128.255088 42.336727 127.423041 42.281257 126.424584 42.161072 C 125.435372 42.050133 124.31673 42.003908 123.077904 42.003908 C 121.829832 42.003908 120.692701 42.050133 119.684999 42.161072 C 118.677297 42.281257 117.826759 42.336727 117.124142 42.336727 C 116.837547 42.336727 116.578688 42.290502 116.347564 42.188807 C 116.125685 42.096357 116.02399 41.929948 116.02399 41.708069 C 116.02399 41.458454 116.125685 41.2828 116.347564 41.19035 C 116.578688 41.088655 116.837547 41.042431 117.124142 41.042431 C 117.503185 41.042431 117.928454 41.070166 118.390703 41.13488 C 118.852951 41.199595 119.398405 41.22733 120.008573 41.22733 C 120.572516 41.22733 121.016275 41.0979 121.339849 40.848286 C 121.663423 40.589427 121.894547 40.201138 122.033222 39.68342 C 122.181141 39.147211 122.273591 38.490818 122.301326 37.714241 C 122.329061 36.919173 122.347551 35.985431 122.347551 34.894524 L 122.347551 16.940788 C 122.347551 15.831391 122.329061 14.851424 122.301326 14.028622 C 122.273591 13.187329 122.181141 12.503201 122.033222 11.948503 C 121.894547 11.40305 121.672668 10.996271 121.367584 10.737412 C 121.0625 10.460063 120.618741 10.321388 120.054798 10.321388 C 119.601794 10.321388 119.093321 10.358368 118.529377 10.413838 C 117.974679 10.478553 117.503185 10.515532 117.124142 10.515532 C 116.837547 10.515532 116.578688 10.460063 116.347564 10.349123 C 116.125685 10.228938 116.02399 10.062529 116.02399 9.840649 C 116.02399 9.61877 116.125685 9.461606 116.347564 9.359911 C 116.578688 9.258216 116.837547 9.211991 117.124142 9.211991 Z M 152.39371 9.211991 C 153.068593 9.211991 153.909886 9.267461 154.917588 9.387646 C 155.92529 9.498585 157.053176 9.554055 158.301248 9.554055 C 159.549319 9.554055 160.677206 9.498585 161.666418 9.387646 C 162.65563 9.267461 163.506167 9.211991 164.208785 9.211991 C 164.495379 9.211991 164.754238 9.258216 164.966873 9.359911 C 165.197997 9.461606 165.308937 9.61877 165.308937 9.840649 C 165.308937 10.062529 165.197997 10.228938 164.966873 10.349123 C 164.754238 10.460063 164.495379 10.515532 164.208785 10.515532 C 163.829741 10.515532 163.404472 10.478553 162.951469 10.413838 C 162.50771 10.358368 162.063951 10.321388 161.620193 10.321388 C 160.98229 10.321388 160.483061 10.395348 160.131752 10.543267 C 159.780443 10.691187 159.521584 10.996271 159.355175 11.47701 C 159.19801 11.948503 159.096315 12.632631 159.05009 13.510903 C 159.003866 14.398421 158.985376 15.572532 158.985376 17.042483 L 158.985376 31.196535 C 158.985376 32.379892 159.031601 33.359859 159.12405 34.136436 C 159.2165 34.903769 159.34593 35.541672 159.512339 36.050146 C 159.761953 36.808233 160.168732 37.547831 160.732675 38.259694 C 161.287374 38.962312 161.980747 39.59097 162.794304 40.136423 C 163.607862 40.672632 164.550849 41.11639 165.604776 41.449209 C 166.658703 41.782028 167.823569 41.957683 169.10862 41.957683 C 170.8929 41.957683 172.483035 41.680334 173.879026 41.144125 C 175.265772 40.598672 176.365923 39.923789 177.170236 39.119476 C 177.965304 38.287429 178.547737 37.418402 178.917536 36.503149 C 179.287335 35.587897 179.462989 34.284356 179.462989 32.592526 L 179.462989 18.00396 C 179.462989 16.302885 179.444499 14.953119 179.398274 13.945417 C 179.352049 12.937715 179.231865 12.161137 179.05621 11.624929 C 178.880556 11.079476 178.621697 10.728167 178.270388 10.571002 C 177.919079 10.404593 177.43834 10.321388 176.828172 10.321388 C 176.384413 10.321388 175.93141 10.358368 175.478406 10.413838 C 175.034647 10.478553 174.618624 10.515532 174.23958 10.515532 C 173.952986 10.515532 173.694126 10.460063 173.463002 10.349123 C 173.250368 10.228938 173.139428 10.062529 173.139428 9.840649 C 173.139428 9.61877 173.250368 9.461606 173.463002 9.359911 C 173.694126 9.258216 173.952986 9.211991 174.23958 9.211991 C 174.942198 9.211991 175.80198 9.267461 176.809682 9.387646 C 177.817384 9.498585 178.945271 9.554055 180.193342 9.554055 C 181.441413 9.554055 182.560055 9.498585 183.558512 9.387646 C 184.547724 9.267461 185.398261 9.211991 186.100879 9.211991 C 186.359738 9.211991 186.600108 9.258216 186.840477 9.359911 C 187.080846 9.461606 187.201031 9.61877 187.201031 9.840649 C 187.201031 10.062529 187.080846 10.228938 186.840477 10.349123 C 186.600108 10.460063 186.359738 10.515532 186.100879 10.515532 C 185.647875 10.515532 185.213362 10.478553 184.797338 10.413838 C 184.381314 10.358368 183.956046 10.321388 183.512287 10.321388 C 182.865139 10.321388 182.375155 10.404593 182.023846 10.571002 C 181.672537 10.728167 181.413678 11.070231 181.247269 11.597194 C 181.090104 12.124158 180.988409 12.89149 180.93294 13.899192 C 180.886715 14.906894 180.85898 16.27515 180.85898 18.00396 L 180.85898 32.638751 C 180.85898 34.913014 180.461446 36.734274 179.666378 38.111774 C 179.287335 38.777412 178.751126 39.42456 178.085488 40.034729 C 177.410605 40.644897 176.624783 41.17186 175.72802 41.624864 C 174.831258 42.068623 173.842046 42.419931 172.778874 42.669546 C 171.706457 42.928405 170.578571 43.057835 169.385969 43.057835 C 167.758854 43.057835 166.224189 42.817465 164.781973 42.355217 C 163.349003 41.892968 162.091686 41.218085 161.010025 40.349058 C 159.937608 39.46154 159.096315 38.379879 158.486147 37.104072 C 157.885224 35.819021 157.589385 34.367561 157.589385 32.731201 L 157.589385 17.042483 C 157.589385 15.600267 157.56165 14.444646 157.50618 13.557128 C 157.459955 12.678856 157.349016 11.994728 157.164116 11.523234 C 156.997707 11.042496 156.729602 10.728167 156.378293 10.571002 C 156.026985 10.404593 155.546246 10.321388 154.936078 10.321388 C 154.492319 10.321388 154.057805 10.358368 153.623292 10.413838 C 153.198023 10.478553 152.772754 10.515532 152.347486 10.515532 C 152.088626 10.515532 151.839012 10.460063 151.598643 10.349123 C 151.367519 10.228938 151.247334 10.062529 151.247334 9.840649 C 151.247334 9.61877 151.367519 9.461606 151.598643 9.359911 C 151.839012 9.258216 152.107116 9.211991 152.39371 9.211991 Z M 197.046926 33.600228 C 197.046926 35.292058 197.065416 36.632579 197.111641 37.631036 C 197.157866 38.620248 197.259561 39.387581 197.416725 39.933034 C 197.583135 40.487732 197.841994 40.839041 198.193303 40.996206 C 198.544612 41.144125 199.02535 41.22733 199.635518 41.22733 C 200.107012 41.22733 200.560016 41.199595 200.994529 41.13488 C 201.429043 41.070166 201.854312 41.042431 202.270336 41.042431 C 202.59391 41.042431 202.852769 41.088655 203.056158 41.19035 C 203.268793 41.2828 203.370487 41.458454 203.370487 41.708069 C 203.370487 41.929948 203.250303 42.096357 203.009933 42.188807 C 202.778809 42.290502 202.529195 42.336727 202.270336 42.336727 C 201.567718 42.336727 200.71718 42.281257 199.709478 42.161072 C 198.692531 42.050133 197.564645 42.003908 196.316573 42.003908 C 195.068502 42.003908 193.949861 42.050133 192.951404 42.161072 C 191.962192 42.281257 191.130144 42.336727 190.455261 42.336727 C 190.177912 42.336727 189.919053 42.290502 189.669438 42.188807 C 189.429069 42.096357 189.308884 41.929948 189.308884 41.708069 C 189.308884 41.458454 189.429069 41.2828 189.669438 41.19035 C 189.919053 41.088655 190.159422 41.042431 190.409036 41.042431 C 190.834305 41.042431 191.259574 41.070166 191.684842 41.13488 C 192.119356 41.199595 192.563115 41.22733 193.016118 41.22733 C 193.617042 41.22733 194.088535 41.144125 194.439844 40.996206 C 194.791153 40.839041 195.059257 40.487732 195.244157 39.960769 C 195.419811 39.433805 195.530751 38.657228 195.576976 37.649526 C 195.6232 36.641824 195.650935 35.292058 195.650935 33.600228 L 195.650935 18.00396 C 195.650935 16.27515 195.6232 14.906894 195.576976 13.899192 C 195.530751 12.89149 195.419811 12.124158 195.244157 11.597194 C 195.059257 11.070231 194.791153 10.728167 194.439844 10.571002 C 194.088535 10.404593 193.617042 10.321388 193.016118 10.321388 C 192.563115 10.321388 192.119356 10.358368 191.684842 10.413838 C 191.259574 10.478553 190.834305 10.515532 190.409036 10.515532 C 190.159422 10.515532 189.919053 10.460063 189.669438 10.349123 C 189.429069 10.228938 189.308884 10.062529 189.308884 9.840649 C 189.308884 9.61877 189.429069 9.461606 189.669438 9.359911 C 189.919053 9.258216 190.159422 9.211991 190.409036 9.211991 C 191.111654 9.211991 191.962192 9.267461 192.951404 9.387646 C 193.949861 9.498585 195.068502 9.554055 196.316573 9.554055 C 197.564645 9.554055 198.692531 9.498585 199.709478 9.387646 C 200.71718 9.267461 201.567718 9.211991 202.270336 9.211991 C 202.529195 9.211991 202.778809 9.258216 203.009933 9.359911 C 203.250303 9.461606 203.370487 9.61877 203.370487 9.840649 C 203.370487 10.062529 203.250303 10.228938 203.009933 10.349123 C 202.778809 10.460063 202.529195 10.515532 202.270336 10.515532 C 201.854312 10.515532 201.429043 10.478553 200.994529 10.413838 C 200.560016 10.358368 200.107012 10.321388 199.635518 10.321388 C 199.053085 10.321388 198.590837 10.413838 198.239528 10.589492 C 197.888219 10.765147 197.620114 11.070231 197.44446 11.523234 C 197.268806 11.966993 197.157866 12.604896 197.111641 13.436944 C 197.065416 14.268991 197.046926 15.322918 197.046926 16.607969 Z M 222.775684 10.561757 C 221.971371 10.561757 221.462898 10.644962 221.250263 10.829861 C 221.046874 10.996271 220.945179 11.532479 220.945179 12.429242 L 220.945179 34.654155 C 220.945179 35.874491 220.963669 36.900683 220.991404 37.732731 C 221.019139 38.564778 221.111589 39.230416 221.268753 39.748135 C 221.435163 40.256608 221.666287 40.635652 221.971371 40.876021 C 222.276455 41.107145 222.720214 41.22733 223.302647 41.22733 C 223.912815 41.22733 224.439779 41.199595 224.883538 41.13488 C 225.327296 41.070166 225.76181 41.042431 226.177834 41.042431 C 226.427448 41.042431 226.677062 41.088655 226.917431 41.19035 C 227.157801 41.2828 227.28723 41.458454 227.28723 41.708069 C 227.28723 41.929948 227.157801 42.096357 226.917431 42.188807 C 226.677062 42.290502 226.408958 42.336727 226.122364 42.336727 C 225.447481 42.336727 224.615433 42.281257 223.626221 42.161072 C 222.637009 42.050133 221.518368 42.003908 220.279541 42.003908 C 219.022225 42.003908 217.894339 42.050133 216.886637 42.161072 C 215.878935 42.281257 215.028397 42.336727 214.325779 42.336727 C 214.02994 42.336727 213.771081 42.290502 213.549202 42.188807 C 213.327322 42.096357 213.216383 41.929948 213.216383 41.708069 C 213.216383 41.458454 213.327322 41.2828 213.549202 41.19035 C 213.771081 41.088655 214.02994 41.042431 214.325779 41.042431 C 214.704823 41.042431 215.139337 41.070166 215.638565 41.13488 C 216.137794 41.199595 216.674002 41.22733 217.256435 41.22733 C 217.820379 41.22733 218.264137 41.0979 218.569222 40.848286 C 218.865061 40.589427 219.096185 40.191893 219.23486 39.655685 C 219.382779 39.110231 219.475229 38.426103 219.502964 37.621791 C 219.530699 36.798988 219.549189 35.828266 219.549189 34.70038 L 219.549189 12.429242 C 219.549189 11.532479 219.447494 10.996271 219.23486 10.829861 C 219.03147 10.644962 218.541487 10.561757 217.783399 10.561757 L 210.86816 10.561757 C 210.285726 10.561757 209.814233 10.617227 209.444434 10.737412 C 209.08388 10.848351 208.797286 11.060986 208.603141 11.375315 C 208.418242 11.698889 208.279567 12.133403 208.196363 12.678856 C 208.113158 13.215064 208.076178 13.936172 208.076178 14.832934 C 208.076178 15.951576 208.094668 16.857583 208.122403 17.541711 C 208.159383 18.235084 208.187118 18.789783 208.205608 19.233541 C 208.224098 19.65881 208.242588 20.000874 208.279567 20.259733 C 208.307302 20.509347 208.325792 20.768207 208.325792 21.027066 C 208.325792 21.470824 208.242588 21.785154 208.076178 21.988543 C 207.919014 22.182687 207.743359 22.275137 207.549215 22.275137 C 207.364315 22.275137 207.188661 22.173442 207.022251 21.960808 C 206.865087 21.748174 206.791127 21.452335 206.791127 21.073291 C 206.791127 20.527837 206.846597 19.871444 206.948291 19.085622 C 207.059231 18.299799 207.114701 17.523221 207.114701 16.755889 C 207.114701 16.561744 207.096211 16.20119 207.068476 15.683472 C 207.040741 15.147263 206.994516 14.574075 206.948291 13.945417 C 206.902067 13.316759 206.865087 12.697346 206.837352 12.068688 C 206.800372 11.449275 206.791127 10.922311 206.791127 10.515532 C 206.791127 9.646505 207.364315 9.211991 208.510692 9.211991 C 210.784955 9.211991 212.717154 9.258216 214.325779 9.359911 C 215.925159 9.461606 217.043801 9.50783 217.681704 9.50783 C 217.996033 9.50783 218.384322 9.50783 218.846571 9.52632 C 219.318064 9.54481 219.771068 9.554055 220.233317 9.554055 C 220.677075 9.554055 221.102344 9.54481 221.518368 9.52632 C 221.934391 9.50783 222.331925 9.50783 222.729459 9.50783 C 223.524527 9.470851 224.421289 9.443116 225.428991 9.406136 C 226.436693 9.378401 227.39817 9.350666 228.313422 9.313686 C 229.228674 9.285951 229.996007 9.258216 230.61542 9.248971 C 231.234833 9.221236 231.567652 9.211991 231.595387 9.211991 C 232.427435 9.211991 232.991378 9.304441 233.287217 9.50783 C 233.573811 9.701975 233.712486 10.034794 233.712486 10.515532 C 233.712486 10.894576 233.693996 11.40305 233.657016 12.022463 C 233.629281 12.651121 233.592301 13.289024 233.536832 13.945417 C 233.490607 14.60181 233.453627 15.193488 233.425892 15.729697 C 233.388912 16.247415 233.379667 16.589479 233.379667 16.755889 C 233.379667 17.523221 233.435137 18.299799 233.536832 19.085622 C 233.657016 19.871444 233.712486 20.527837 233.712486 21.073291 C 233.712486 21.452335 233.638526 21.748174 233.472117 21.960808 C 233.314952 22.173442 233.139298 22.275137 232.945153 22.275137 C 232.751009 22.275137 232.575354 22.182687 232.41819 21.988543 C 232.261025 21.785154 232.177821 21.470824 232.177821 21.027066 C 232.177821 20.472367 232.224045 19.834464 232.298005 19.104112 C 232.38121 18.364514 232.41819 17.532466 232.41819 16.607969 C 232.41819 14.500115 232.371965 13.104125 232.279515 12.429242 C 232.2148 12.114913 232.131596 11.828318 232.029901 11.587949 C 231.937451 11.34758 231.780287 11.144191 231.549162 10.996271 C 231.327283 10.839106 231.022199 10.728167 230.63391 10.663452 C 230.254866 10.589492 229.755638 10.561757 229.14547 10.561757 Z M 260.264046 35.282813 C 260.264046 37.84367 260.338006 39.406071 260.49517 39.988504 C 260.66158 40.496977 261.290238 40.839041 262.39039 40.996206 C 263.499786 41.144125 265.385761 41.22733 268.076048 41.22733 C 270.960479 41.22733 273.299457 40.922246 275.083737 40.321323 C 276.886506 39.711155 278.384192 38.786657 279.595283 37.538586 C 280.815619 36.253535 281.703137 34.6634 282.257835 32.76818 C 282.821778 30.863716 283.099127 28.709638 283.099127 26.305945 C 283.099127 22.238157 282.415 18.928457 281.037499 16.3676 C 280.529025 15.406123 279.909612 14.555585 279.160769 13.806742 C 278.430417 13.048655 277.542899 12.410752 276.507462 11.902278 C 275.46278 11.393805 274.251689 10.996271 272.855698 10.737412 C 271.468952 10.460063 269.860327 10.321388 268.029823 10.321388 C 266.883446 10.321388 265.524435 10.413838 263.95279 10.607982 C 263.120743 10.709677 262.436615 10.792882 261.891161 10.876086 C 261.345708 10.950046 260.957419 11.153435 260.744785 11.47701 C 260.51366 11.828318 260.374986 12.355282 260.328761 13.0579 C 260.282536 13.760518 260.264046 14.832934 260.264046 16.27515 Z M 253.672381 9.211991 C 254.347264 9.211991 255.188556 9.267461 256.196258 9.387646 C 257.213205 9.498585 258.322602 9.554055 259.533693 9.554055 C 259.820287 9.554055 260.402721 9.535565 261.280993 9.50783 C 262.159265 9.470851 263.102253 9.433871 264.091465 9.387646 C 265.080677 9.341421 266.014419 9.304441 266.874201 9.267461 C 267.733984 9.230481 268.297927 9.211991 268.556786 9.211991 C 270.673885 9.211991 272.467409 9.369156 273.93736 9.69273 C 275.407311 10.016304 276.655382 10.460063 277.672329 11.042496 C 279.789427 12.253587 281.481257 14.167296 282.738574 16.783624 C 284.005135 19.381461 284.633793 22.432302 284.633793 25.917656 C 284.633793 27.387607 284.485873 28.968497 284.180789 30.641837 C 283.88495 32.324422 283.357987 33.831352 282.618389 35.181118 C 282.054446 36.272025 281.398053 37.261237 280.64921 38.148754 C 279.918857 39.017782 279.03134 39.766624 277.995903 40.395283 C 276.951221 41.023941 275.749375 41.495434 274.371874 41.837498 C 272.994373 42.170317 271.394993 42.336727 269.564488 42.336727 C 267.39192 42.336727 265.51519 42.281257 263.925055 42.161072 C 262.344165 42.050133 260.892704 42.003908 259.579918 42.003908 C 258.341092 42.003908 257.213205 42.050133 256.196258 42.161072 C 255.188556 42.281257 254.347264 42.336727 253.672381 42.336727 C 253.395032 42.336727 253.136173 42.290502 252.886558 42.188807 C 252.646189 42.096357 252.526004 41.929948 252.526004 41.708069 C 252.526004 41.458454 252.646189 41.2828 252.886558 41.19035 C 253.136173 41.088655 253.376542 41.042431 253.626156 41.042431 C 254.051425 41.042431 254.476694 41.070166 254.901962 41.13488 C 255.336476 41.199595 255.780235 41.22733 256.233238 41.22733 C 256.861896 41.22733 257.35188 41.144125 257.703189 40.968471 C 258.063743 40.792816 258.331847 40.441507 258.507501 39.914544 C 258.683156 39.378336 258.784851 38.611003 258.82183 37.603301 C 258.849565 36.595599 258.868055 35.264323 258.868055 33.600228 L 258.868055 18.00396 C 258.868055 16.23817 258.84032 14.851424 258.794096 13.825232 C 258.747871 12.808286 258.627686 12.040953 258.433542 11.532479 C 258.239397 11.014761 257.962048 10.691187 257.610739 10.543267 C 257.25943 10.395348 256.797182 10.321388 256.233238 10.321388 C 255.780235 10.321388 255.336476 10.358368 254.901962 10.413838 C 254.476694 10.478553 254.051425 10.515532 253.626156 10.515532 C 253.376542 10.515532 253.136173 10.460063 252.886558 10.349123 C 252.646189 10.228938 252.526004 10.062529 252.526004 9.840649 C 252.526004 9.61877 252.646189 9.461606 252.886558 9.359911 C 253.136173 9.258216 253.395032 9.211991 253.672381 9.211991 Z M 289.579853 9.211991 C 289.931162 9.211991 290.365676 9.230481 290.874149 9.267461 C 291.391868 9.304441 291.937321 9.341421 292.510509 9.387646 C 293.092942 9.433871 293.666131 9.470851 294.239319 9.50783 C 294.812507 9.535565 295.330226 9.554055 295.773984 9.554055 C 296.226988 9.554055 296.948096 9.54481 297.937308 9.52632 C 298.935765 9.50783 300.045162 9.48934 301.265498 9.461606 C 302.504324 9.424626 303.79862 9.406136 305.157631 9.387646 C 306.516642 9.369156 307.810938 9.350666 309.049764 9.313686 C 310.279346 9.285951 311.361008 9.258216 312.285505 9.248971 C 313.210002 9.221236 313.884885 9.211991 314.310154 9.211991 C 315.234651 9.211991 315.807839 9.350666 316.029718 9.61877 C 316.260843 9.896119 316.371782 10.302898 316.371782 10.848351 C 316.371782 11.745114 316.316313 12.604896 316.196128 13.436944 C 316.085188 14.268991 316.029718 15.101039 316.029718 15.933086 C 316.029718 16.866828 316.085188 17.745101 316.196128 18.558658 C 316.316313 19.372216 316.371782 20.093324 316.371782 20.731227 C 316.371782 21.886848 316.103678 22.469281 315.54898 22.469281 C 315.290121 22.469281 315.114466 22.367587 315.003527 22.164197 C 314.892587 21.951563 314.837117 21.489314 314.837117 20.786697 C 314.837117 20.629532 314.855607 20.231998 314.883342 19.60334 C 314.911077 18.983927 314.938812 18.318289 314.957302 17.615671 C 314.966547 16.913053 314.994282 16.247415 315.022017 15.618757 C 315.058996 14.999344 315.068241 14.592565 315.068241 14.398421 C 315.068241 13.436944 315.012772 12.706591 314.892587 12.198117 C 314.790892 11.680399 314.559768 11.301355 314.226949 11.060986 C 313.89413 10.820616 313.431881 10.672697 312.858693 10.626472 C 312.285505 10.580247 311.518172 10.561757 310.556695 10.561757 L 298.85256 10.561757 C 298.334842 10.561757 297.918818 10.607982 297.595244 10.709677 C 297.280915 10.802127 297.022056 10.996271 296.827911 11.282865 C 296.633767 11.569459 296.513582 11.985483 296.448867 12.549426 C 296.384153 13.11337 296.356418 13.871457 296.356418 14.832934 L 296.356418 23.04247 C 296.356418 23.680373 296.495092 24.077907 296.781686 24.244316 C 297.06828 24.401481 297.484304 24.484685 298.029758 24.484685 L 304.371809 24.484685 C 305.398 24.484685 306.183823 24.272051 306.738521 23.856027 C 307.302465 23.440004 307.579814 22.765121 307.579814 21.840623 C 307.579814 21.33215 307.542834 20.777452 307.468874 20.195018 C 307.385669 19.594095 307.34869 19.030152 307.34869 18.484698 C 307.34869 17.96698 307.431894 17.615671 307.579814 17.421527 C 307.746223 17.227382 307.903388 17.134932 308.060552 17.134932 C 308.319412 17.134932 308.495066 17.273607 308.587516 17.569446 C 308.689211 17.85604 308.735435 18.207349 308.735435 18.623373 C 308.735435 18.752803 308.716945 19.122602 308.689211 19.73277 C 308.652231 20.333693 308.615251 20.990086 308.569026 21.701949 C 308.522801 22.404567 308.485821 23.07945 308.448841 23.717353 C 308.421106 24.355256 308.402616 24.762035 308.402616 24.965424 C 308.402616 25.187303 308.421106 25.695777 308.448841 26.500089 C 308.485821 27.295157 308.522801 28.136449 308.569026 29.042457 C 308.615251 29.939219 308.652231 30.771266 308.689211 31.538599 C 308.716945 32.296687 308.735435 32.749691 308.735435 32.87912 C 308.735435 33.812862 308.513556 34.275111 308.060552 34.275111 C 307.866408 34.275111 307.699999 34.164171 307.561324 33.933047 C 307.422649 33.711168 307.34869 33.276654 307.34869 32.638751 C 307.34869 32.065563 307.385669 31.446149 307.468874 30.771266 C 307.542834 30.105628 307.579814 29.449235 307.579814 28.802087 C 307.579814 27.424587 307.27473 26.527824 306.673807 26.111801 C 306.063638 25.695777 305.120651 25.492387 303.844845 25.492387 L 298.602946 25.492387 C 297.780143 25.492387 297.19771 25.557102 296.864891 25.686532 C 296.522827 25.815961 296.356418 26.24123 296.356418 26.980828 L 296.356418 38.157999 C 296.356418 38.823637 296.393398 39.350601 296.476602 39.729645 C 296.550562 40.090198 296.689237 40.376793 296.874136 40.570937 C 297.06828 40.755836 297.32714 40.876021 297.641469 40.922246 C 297.965043 40.968471 298.371822 40.996206 298.85256 40.996206 L 311.083658 40.996206 C 312.137585 40.996206 312.969633 40.931491 313.561311 40.802061 C 314.152989 40.672632 314.596748 40.441507 314.883342 40.127178 C 315.169936 39.803604 315.354836 39.369091 315.43804 38.814392 C 315.512 38.250449 315.54898 37.538586 315.54898 36.669559 C 315.54898 35.708082 315.512 34.783584 315.43804 33.886822 C 315.354836 32.99006 315.317856 32.194992 315.317856 31.492374 C 315.317856 30.493917 315.56747 30.003934 316.075943 30.003934 C 316.593662 30.003934 316.852521 30.429203 316.852521 31.29823 C 316.852521 32.000848 316.797051 32.740446 316.676867 33.507778 C 316.565927 34.265866 316.510457 35.070179 316.510457 35.902226 C 316.510457 36.835968 316.565927 37.677261 316.676867 38.426103 C 316.797051 39.174946 316.852521 39.868319 316.852521 40.515467 C 316.852521 41.125635 316.713846 41.578639 316.445742 41.883723 C 316.168393 42.188807 315.43804 42.336727 314.254684 42.336727 C 314.00507 42.336727 313.468861 42.327482 312.646059 42.318237 C 311.832501 42.299747 310.852534 42.272012 309.696913 42.235032 C 308.541291 42.207297 307.283975 42.179562 305.906474 42.161072 C 304.528973 42.151827 303.160717 42.124092 301.792461 42.096357 C 300.43345 42.059378 299.129909 42.040888 297.881838 42.022398 C 296.633767 42.003908 295.570595 42.003908 294.673833 42.003908 C 293.231617 42.003908 292.12222 42.050133 291.354888 42.161072 C 290.587555 42.281257 290.042102 42.336727 289.727773 42.336727 C 289.311749 42.336727 288.969685 42.281257 288.720071 42.161072 C 288.470456 42.050133 288.341027 41.874478 288.341027 41.615619 C 288.341027 41.070166 288.75705 40.802061 289.579853 40.802061 C 290.069837 40.802061 290.569065 40.839041 291.096028 40.894511 C 291.622992 40.959226 292.19618 40.996206 292.806348 40.996206 C 293.314822 40.996206 293.721601 40.922246 294.026685 40.783571 C 294.331769 40.635652 294.544403 40.376793 294.673833 40.006994 C 294.803262 39.637195 294.886467 39.137966 294.914202 38.500063 C 294.951182 37.852915 294.960427 37.039358 294.960427 36.050146 L 294.960427 14.63879 C 294.960427 13.806742 294.941937 13.13186 294.895712 12.604896 C 294.849487 12.077933 294.747792 11.661909 294.599873 11.356825 C 294.461198 11.051741 294.239319 10.848351 293.952725 10.737412 C 293.666131 10.617227 293.287087 10.561757 292.806348 10.561757 C 292.223915 10.561757 291.659972 10.589492 291.096028 10.663452 C 290.532085 10.728167 290.032857 10.755902 289.579853 10.755902 C 289.173074 10.755902 288.858745 10.681942 288.646111 10.524777 C 288.442721 10.358368 288.341027 10.182713 288.341027 9.988569 C 288.341027 9.78518 288.442721 9.609525 288.646111 9.461606 C 288.858745 9.295196 289.173074 9.211991 289.579853 9.211991 Z M 334.556643 8.500128 C 336.895621 8.500128 338.8648 8.980867 340.46418 9.960834 C 342.06356 10.940801 343.172957 12.336792 343.783125 14.158051 L 343.875575 14.158051 L 343.9218 12.669611 C 343.9218 12.346037 343.894065 11.976238 343.82935 11.541724 C 343.764635 11.116456 343.7369 10.737412 343.7369 10.413838 C 343.7369 10.034794 343.801615 9.738955 343.94029 9.52632 C 344.088209 9.313686 344.236129 9.211991 344.402538 9.211991 C 344.846297 9.211991 345.068176 9.609525 345.068176 10.413838 C 345.068176 10.478553 345.049686 10.792882 345.021951 11.356825 C 344.994216 11.911523 344.947992 12.521691 344.901767 13.196574 C 344.855542 13.871457 344.818562 14.518605 344.790827 15.138018 C 344.753847 15.766677 344.744602 16.191945 344.744602 16.413825 C 344.744602 16.672684 344.753847 17.042483 344.790827 17.523221 C 344.818562 17.994715 344.855542 18.475453 344.901767 18.965437 C 344.947992 19.436931 344.994216 19.880689 345.021951 20.287468 C 345.049686 20.685002 345.068176 20.925371 345.068176 21.027066 C 345.068176 21.341395 344.984971 21.591009 344.827807 21.775909 C 344.670642 21.942318 344.494988 22.034768 344.310088 22.034768 C 344.143679 22.034768 343.986514 21.951563 343.838595 21.794398 C 343.69992 21.637234 343.625961 21.378375 343.625961 21.027066 C 343.625961 20.675757 343.653695 20.352183 343.69992 20.065589 C 343.75539 19.76975 343.783125 19.418441 343.783125 19.011662 C 343.783125 15.997801 342.978812 13.677313 341.379432 12.050198 C 339.780052 10.413838 337.515034 9.60028 334.602868 9.60028 C 333.105182 9.60028 331.792396 9.822159 330.664509 10.275163 C 329.545868 10.718922 328.602881 11.3106 327.835548 12.050198 C 327.068215 12.780551 326.495027 13.640333 326.106738 14.611055 C 325.727694 15.591022 325.53355 16.617214 325.53355 17.708121 C 325.53355 18.669598 325.709204 19.54787 326.060513 20.352183 C 326.411822 21.156495 326.985011 21.859113 327.780078 22.487771 C 328.593636 23.11643 329.647563 23.615658 330.960349 24.003947 C 332.273135 24.382991 333.891005 24.64185 335.813959 24.77128 C 337.894078 24.900709 339.613643 25.187303 340.991143 25.640307 C 342.368644 26.084066 343.459551 26.666499 344.273109 27.387607 C 345.095911 28.108714 345.669099 28.959252 346.011163 29.957709 C 346.343982 30.946921 346.510392 32.065563 346.510392 33.313634 C 346.510392 34.524725 346.288512 35.717327 345.835509 36.891438 C 345.382505 38.056305 344.707622 39.091741 343.79237 40.006994 C 342.886363 40.922246 341.739986 41.652599 340.343995 42.207297 C 338.95725 42.77124 337.311644 43.057835 335.42567 43.057835 C 332.929528 43.057835 330.784694 42.651056 328.99117 41.837498 C 327.20689 41.014696 325.718449 39.600215 324.525848 37.584811 L 324.433398 37.584811 C 324.525848 38.389124 324.609053 39.119476 324.664523 39.775869 C 324.738482 40.432262 324.775462 40.894511 324.775462 41.181105 C 324.775462 41.920703 324.516603 42.290502 323.998885 42.290502 C 323.777005 42.290502 323.592106 42.151827 323.444186 41.883723 C 323.305512 41.606374 323.240797 41.30129 323.240797 40.940736 C 323.240797 40.654142 323.250042 40.247363 323.287022 39.729645 C 323.314757 39.193436 323.351736 38.629493 323.397961 38.037815 C 323.444186 37.446136 323.490411 36.882193 323.518146 36.33674 C 323.545881 35.791286 323.564371 35.375263 323.564371 35.088669 C 323.564371 34.765094 323.545881 34.330581 323.518146 33.775882 C 323.490411 33.211939 323.444186 32.629506 323.397961 32.037828 C 323.351736 31.446149 323.314757 30.891451 323.287022 30.382978 C 323.250042 29.874504 323.240797 29.523195 323.240797 29.329051 C 323.240797 29.070192 323.296267 28.848312 323.397961 28.644923 C 323.508901 28.432289 323.6938 28.321349 323.95266 28.321349 C 324.396418 28.321349 324.618298 28.589453 324.618298 29.134906 C 324.618298 29.449235 324.599808 29.874504 324.553583 30.410713 C 324.507358 30.937676 324.479623 31.455394 324.479623 31.973113 C 324.479623 35.236588 325.413365 37.714241 327.28085 39.406071 C 329.157579 41.107145 331.727681 41.957683 334.991156 41.957683 C 336.627517 41.957683 338.060487 41.726559 339.308558 41.2828 C 340.55663 40.829796 341.592067 40.210383 342.424114 39.406071 C 343.256162 38.601758 343.894065 37.677261 344.319333 36.623334 C 344.753847 35.569407 344.975726 34.413786 344.975726 33.165714 C 344.975726 30.928431 344.282354 29.236601 342.886363 28.090225 C 341.499617 26.934603 339.253089 26.25972 336.137533 26.065576 C 333.964965 25.936146 332.11597 25.658797 330.57206 25.233528 C 329.046639 24.789769 327.789323 24.235071 326.809356 23.541698 C 325.838634 22.85757 325.117526 22.025523 324.664523 21.045556 C 324.220764 20.074834 323.998885 18.974682 323.998885 17.763591 C 323.998885 16.487784 324.257744 15.285938 324.756972 14.167296 C 325.274691 13.03941 325.995799 12.068688 326.901806 11.23664 C 327.817058 10.404593 328.91721 9.738955 330.211506 9.248971 C 331.505802 8.749743 332.957263 8.500128 334.556643 8.500128 Z M 334.556643 8.500128 " stroke="#000000" stroke-width="2.850006" stroke-opacity="1" stroke-miterlimit="4"/><path stroke-linecap="butt" transform="matrix(0.422527, 0, 0, 0.422527, 130.609549, 43.451435)" fill="none" stroke-linejoin="miter" d="M 85.044088 75.775791 C 87.5957 75.775791 89.786759 76.284265 91.617263 77.301212 C 93.447768 78.308914 95.019413 80.130173 96.341444 82.76499 L 96.443139 82.700275 L 96.396914 81.063915 C 96.396914 80.703361 96.378424 80.268848 96.341444 79.760374 C 96.304464 79.242656 96.285974 78.854367 96.285974 78.604753 C 96.285974 77.957605 96.359934 77.523091 96.498609 77.301212 C 96.646528 77.060842 96.822183 76.949903 97.034817 76.949903 C 97.487821 76.949903 97.718945 77.264232 97.718945 77.91138 C 97.718945 78.336648 97.700455 78.928327 97.67272 79.695659 C 97.63574 80.462992 97.589515 81.23957 97.54329 82.034637 C 97.487821 82.83895 97.441596 83.597038 97.413861 84.32739 C 97.376881 85.057743 97.358391 85.640177 97.358391 86.07469 C 97.358391 86.925228 97.413861 87.849725 97.54329 88.848182 C 97.663475 89.837394 97.718945 90.761891 97.718945 91.621674 C 97.718945 91.963738 97.63574 92.222597 97.478576 92.389006 C 97.321411 92.546171 97.136512 92.620131 96.923877 92.620131 C 96.637283 92.620131 96.424649 92.518436 96.276729 92.315046 C 96.138055 92.093167 96.064095 91.825063 96.064095 91.501489 C 96.064095 91.26112 96.09183 90.789626 96.1473 90.096253 C 96.202769 89.40288 96.239749 88.681772 96.239749 87.93293 C 96.239749 86.481469 95.99938 85.094723 95.537131 83.781937 C 95.074883 82.459906 94.372265 81.29504 93.429278 80.278093 C 92.486291 79.261146 91.312179 78.466078 89.906943 77.883645 C 88.501708 77.291967 86.856103 76.996128 84.979373 76.996128 C 82.880764 76.996128 81.05026 77.356681 79.478615 78.068544 C 77.916214 78.780407 76.566448 79.751129 75.429317 80.9992 C 73.839182 82.811215 72.66507 85.020763 71.916227 87.637091 C 71.167385 90.253418 70.797586 92.925215 70.797586 95.670971 C 70.797586 98.657097 71.222855 101.347384 72.073392 103.760322 C 72.923929 106.15477 74.190491 108.114704 75.863831 109.640124 C 77.028697 110.712541 78.369218 111.526099 79.857659 112.099287 C 81.355344 112.66323 83.093399 112.949824 85.090313 112.949824 C 86.976287 112.949824 88.668117 112.66323 90.156558 112.099287 C 91.654243 111.526099 92.920804 110.712541 93.956241 109.640124 C 95.010168 108.576953 95.805236 107.301146 96.350689 105.821951 C 96.914632 104.352 97.191981 102.706395 97.191981 100.894381 C 97.191981 99.969883 97.478576 99.507635 98.051764 99.507635 C 98.301378 99.507635 98.495523 99.581595 98.634197 99.720269 C 98.772872 99.858944 98.837586 100.127048 98.837586 100.524582 C 98.837586 102.225657 98.550992 103.898997 97.977804 105.535357 C 97.413861 107.171717 96.563323 108.632422 95.426192 109.917474 C 94.28906 111.19328 92.856089 112.219472 91.10879 112.996049 C 89.370735 113.781872 87.309106 114.170161 84.923903 114.170161 C 80.837626 114.170161 77.509436 113.033029 74.948578 110.758766 C 73.959366 109.871249 73.099584 108.845057 72.369231 107.670945 C 71.638878 106.496834 71.037955 105.221028 70.547972 103.862017 C 70.067233 102.484516 69.706679 101.051545 69.457065 99.53537 C 69.216696 98.028439 69.087266 96.521509 69.087266 95.033068 C 69.087266 93.646322 69.198206 92.241087 69.401595 90.817361 C 69.623474 89.393635 69.947048 88.025379 70.390807 86.712593 C 70.834566 85.390562 71.398509 84.151736 72.073392 83.005359 C 72.748275 81.849738 73.552588 80.823546 74.46784 79.926784 C 75.789871 78.650978 77.315291 77.643276 79.053346 76.894433 C 80.791401 76.14559 82.788315 75.775791 85.044088 75.775791 Z M 112.557125 94.450635 C 112.270531 94.450635 112.076387 94.49686 111.993182 94.598555 C 111.909977 94.709494 111.863752 94.940619 111.863752 95.291927 L 111.863752 103.667872 C 111.863752 105.544602 111.891487 107.042287 111.937712 108.142439 C 111.993182 109.242591 112.104122 110.102373 112.279776 110.712541 C 112.464676 111.313464 112.75127 111.710998 113.139558 111.877408 C 113.527847 112.053062 114.064056 112.136267 114.738939 112.136267 C 115.265902 112.136267 115.774376 112.108532 116.245869 112.034572 C 116.735853 111.969857 117.207346 111.932877 117.669595 111.932877 C 118.020904 111.932877 118.316743 111.988347 118.538622 112.099287 C 118.778992 112.210227 118.889931 112.395126 118.889931 112.672475 C 118.889931 112.922089 118.760502 113.106989 118.492397 113.208684 C 118.233538 113.319623 117.956189 113.375093 117.669595 113.375093 C 116.883772 113.375093 115.940785 113.310378 114.822143 113.180949 C 113.694257 113.060764 112.446186 112.996049 111.05944 112.996049 C 109.663449 112.996049 108.424623 113.060764 107.315226 113.180949 C 106.215074 113.310378 105.290577 113.375093 104.541734 113.375093 C 104.23665 113.375093 103.940811 113.319623 103.672707 113.208684 C 103.404603 113.106989 103.265928 112.922089 103.265928 112.672475 C 103.265928 112.395126 103.404603 112.210227 103.672707 112.099287 C 103.940811 111.988347 104.21816 111.932877 104.495509 111.932877 C 104.957758 111.932877 105.438497 111.969857 105.90999 112.034572 C 106.390729 112.108532 106.880712 112.136267 107.379941 112.136267 C 108.054824 112.136267 108.581787 112.053062 108.970076 111.877408 C 109.358365 111.710998 109.654204 111.322709 109.857593 110.731031 C 110.060983 110.148598 110.181167 109.288815 110.236637 108.170174 C 110.282862 107.051532 110.310597 105.544602 110.310597 103.667872 L 110.310597 86.333549 C 110.310597 84.41984 110.282862 82.89442 110.236637 81.775778 C 110.181167 80.657137 110.060983 79.806599 109.857593 79.224166 C 109.654204 78.632488 109.358365 78.253444 108.970076 78.077789 C 108.581787 77.902135 108.054824 77.809685 107.379941 77.809685 C 106.880712 77.809685 106.390729 77.83742 105.90999 77.91138 C 105.438497 77.976095 104.957758 78.013074 104.495509 78.013074 C 104.21816 78.013074 103.940811 77.957605 103.672707 77.83742 C 103.404603 77.698745 103.265928 77.513846 103.265928 77.273477 C 103.265928 77.023862 103.404603 76.838963 103.672707 76.737268 C 103.940811 76.626329 104.21816 76.570859 104.495509 76.570859 C 105.272087 76.570859 106.215074 76.635574 107.315226 76.765003 C 108.424623 76.885188 109.663449 76.949903 111.05944 76.949903 C 112.446186 76.949903 113.694257 76.885188 114.822143 76.765003 C 115.940785 76.635574 116.883772 76.570859 117.669595 76.570859 C 117.956189 76.570859 118.233538 76.626329 118.492397 76.737268 C 118.760502 76.838963 118.889931 77.023862 118.889931 77.273477 C 118.889931 77.513846 118.760502 77.698745 118.492397 77.83742 C 118.233538 77.957605 117.956189 78.013074 117.669595 78.013074 C 117.207346 78.013074 116.735853 77.976095 116.245869 77.91138 C 115.774376 77.83742 115.265902 77.809685 114.738939 77.809685 C 114.101036 77.809685 113.583317 77.902135 113.195028 78.105524 C 112.797495 78.299669 112.501655 78.641733 112.307511 79.131716 C 112.113367 79.630945 111.993182 80.342807 111.937712 81.267305 C 111.891487 82.191802 111.863752 83.365913 111.863752 84.789639 L 111.863752 92.416741 C 111.863752 92.80503 111.919222 93.054644 112.020917 93.174829 C 112.122612 93.276524 112.298266 93.322748 112.557125 93.322748 L 133.617172 93.322748 C 133.857541 93.322748 134.033196 93.276524 134.144135 93.174829 C 134.255075 93.054644 134.310545 92.80503 134.310545 92.416741 L 134.310545 84.789639 C 134.310545 83.365913 134.28281 82.191802 134.22734 81.267305 C 134.181115 80.342807 134.051686 79.630945 133.857541 79.131716 C 133.663397 78.641733 133.367558 78.299669 132.979269 78.105524 C 132.59098 77.902135 132.073262 77.809685 131.435358 77.809685 C 130.889905 77.809685 130.381432 77.83742 129.909938 77.91138 C 129.4292 77.976095 128.957706 78.013074 128.504702 78.013074 C 128.218108 78.013074 127.940759 77.957605 127.672655 77.83742 C 127.395306 77.698745 127.265876 77.513846 127.265876 77.273477 C 127.265876 77.023862 127.395306 76.838963 127.672655 76.737268 C 127.940759 76.626329 128.218108 76.570859 128.504702 76.570859 C 129.28128 76.570859 130.233512 76.635574 131.352154 76.765003 C 132.470795 76.885188 133.718867 76.949903 135.105612 76.949903 C 136.492358 76.949903 137.74043 76.885188 138.840581 76.765003 C 139.940733 76.635574 140.88372 76.570859 141.669543 76.570859 C 141.956137 76.570859 142.224241 76.626329 142.4831 76.737268 C 142.751204 76.838963 142.889879 77.023862 142.889879 77.273477 C 142.889879 77.513846 142.751204 77.698745 142.4831 77.83742 C 142.224241 77.957605 141.956137 78.013074 141.669543 78.013074 C 141.207294 78.013074 140.735801 77.976095 140.245817 77.91138 C 139.765078 77.83742 139.28434 77.809685 138.785111 77.809685 C 138.110228 77.809685 137.57402 77.902135 137.185731 78.077789 C 136.797442 78.253444 136.501603 78.632488 136.298214 79.224166 C 136.113314 79.806599 135.99313 80.657137 135.93766 81.775778 C 135.88219 82.89442 135.854455 84.41984 135.854455 86.333549 L 135.854455 103.667872 C 135.854455 105.544602 135.88219 107.051532 135.93766 108.170174 C 135.99313 109.288815 136.113314 110.148598 136.298214 110.731031 C 136.501603 111.322709 136.797442 111.710998 137.185731 111.877408 C 137.57402 112.053062 138.110228 112.136267 138.785111 112.136267 C 139.28434 112.136267 139.765078 112.108532 140.245817 112.034572 C 140.735801 111.969857 141.207294 111.932877 141.669543 111.932877 C 141.956137 111.932877 142.224241 111.988347 142.4831 112.099287 C 142.751204 112.210227 142.889879 112.395126 142.889879 112.672475 C 142.889879 112.922089 142.751204 113.106989 142.4831 113.208684 C 142.224241 113.319623 141.937647 113.375093 141.614073 113.375093 C 140.86523 113.375093 139.940733 113.310378 138.840581 113.180949 C 137.74043 113.060764 136.492358 112.996049 135.105612 112.996049 C 133.718867 112.996049 132.470795 113.060764 131.352154 113.180949 C 130.233512 113.310378 129.28128 113.375093 128.504702 113.375093 C 128.218108 113.375093 127.940759 113.319623 127.672655 113.208684 C 127.395306 113.106989 127.265876 112.922089 127.265876 112.672475 C 127.265876 112.395126 127.386061 112.210227 127.617185 112.099287 C 127.848309 111.988347 128.144148 111.932877 128.504702 111.932877 C 128.957706 111.932877 129.4292 111.969857 129.909938 112.034572 C 130.381432 112.108532 130.889905 112.136267 131.435358 112.136267 C 132.110241 112.136267 132.64645 112.053062 133.034739 111.877408 C 133.423028 111.710998 133.709622 111.313464 133.876031 110.712541 C 134.060931 110.102373 134.181115 109.242591 134.22734 108.142439 C 134.28281 107.042287 134.310545 105.544602 134.310545 103.667872 L 134.310545 95.291927 C 134.310545 94.940619 134.26432 94.709494 134.181115 94.598555 C 134.088666 94.49686 133.903766 94.450635 133.617172 94.450635 Z M 148.973071 94.977598 C 148.973071 97.529211 149.2874 99.905169 149.897568 102.086982 C 150.526226 104.27804 151.441478 106.17326 152.643325 107.781885 C 153.863661 109.37202 155.342857 110.638581 157.099401 111.572324 C 158.865191 112.487576 160.880595 112.949824 163.154858 112.949824 C 165.327427 112.949824 167.268871 112.506066 168.997681 111.618548 C 170.72649 110.721786 172.205686 109.492205 173.426022 107.911315 C 174.646359 106.330424 175.589346 104.435205 176.254984 102.234902 C 176.911377 100.025353 177.244196 97.612416 177.244196 94.977598 C 177.244196 92.592396 176.948357 90.308887 176.356678 88.117829 C 175.774245 85.926771 174.895973 84.022306 173.712616 82.385946 C 172.538505 80.749586 171.068554 79.446045 169.284275 78.475323 C 167.518485 77.486111 165.438366 76.996128 163.053163 76.996128 C 160.7789 76.996128 158.754251 77.476866 156.997707 78.419853 C 155.241162 79.353595 153.771211 80.647892 152.569365 82.284252 C 151.376764 83.920612 150.480001 85.815831 149.869833 87.988399 C 149.278155 90.160968 148.973071 92.490701 148.973071 94.977598 Z M 163.099388 75.775791 C 165.595531 75.775791 167.814324 76.27502 169.765013 77.273477 C 171.734192 78.262689 173.379797 79.6217 174.729563 81.350509 C 176.079329 83.079319 177.124011 85.103968 177.854364 87.424456 C 178.584717 89.754189 178.945271 92.250332 178.945271 94.912884 C 178.945271 97.723355 178.575472 100.321192 177.826629 102.687905 C 177.077786 105.045373 176.014614 107.088512 174.627869 108.798832 C 173.231878 110.499907 171.577028 111.821938 169.635584 112.764925 C 167.703384 113.698667 165.540061 114.170161 163.154858 114.170161 C 160.640226 114.170161 158.384452 113.680177 156.406028 112.690965 C 154.436849 111.692508 152.772754 110.315007 151.422988 108.576953 C 150.082467 106.829653 149.047031 104.795759 148.335168 102.466026 C 147.623305 100.136293 147.271996 97.649395 147.271996 94.977598 C 147.271996 92.268822 147.63255 89.744944 148.362903 87.405966 C 149.093255 85.057743 150.128692 83.023849 151.478458 81.29504 C 152.828224 79.56623 154.492319 78.216464 156.461498 77.245742 C 158.439922 76.265775 160.658716 75.775791 163.099388 75.775791 Z M 197.342765 75.775791 C 199.931358 75.775791 202.122416 76.321245 203.897451 77.402906 C 205.68173 78.484568 206.911312 80.037723 207.586195 82.062372 L 207.687889 82.062372 L 207.743359 80.407522 C 207.743359 80.056213 207.706379 79.64019 207.641664 79.159451 C 207.567705 78.687957 207.530725 78.262689 207.530725 77.91138 C 207.530725 77.486111 207.613929 77.153292 207.771094 76.922168 C 207.928258 76.691043 208.094668 76.570859 208.279567 76.570859 C 208.769551 76.570859 209.019165 77.014617 209.019165 77.91138 C 209.019165 77.976095 209.000675 78.327404 208.963695 78.956062 C 208.93596 79.56623 208.889736 80.250358 208.834266 80.9992 C 208.788041 81.738798 208.741816 82.459906 208.704836 83.162524 C 208.667856 83.855897 208.658611 84.32739 208.658611 84.577005 C 208.658611 84.863599 208.667856 85.270378 208.704836 85.797341 C 208.741816 86.333549 208.788041 86.860513 208.834266 87.405966 C 208.889736 87.93293 208.93596 88.422913 208.963695 88.875917 C 209.000675 89.319675 209.019165 89.58778 209.019165 89.698719 C 209.019165 90.050028 208.926715 90.327377 208.741816 90.530767 C 208.575407 90.715666 208.381262 90.817361 208.168628 90.817361 C 207.992973 90.817361 207.817319 90.724911 207.650909 90.549257 C 207.493745 90.373602 207.419785 90.087008 207.419785 89.698719 C 207.419785 89.301186 207.44752 88.949877 207.493745 88.626303 C 207.55846 88.302729 207.586195 87.91444 207.586195 87.452191 C 207.586195 84.114756 206.698677 81.535409 204.914398 79.723394 C 203.139363 77.902135 200.633975 76.996128 197.38899 76.996128 C 195.724895 76.996128 194.26419 77.254987 193.016118 77.754215 C 191.777292 78.253444 190.723365 78.900592 189.863583 79.723394 C 189.013045 80.536952 188.375142 81.489184 187.949874 82.570846 C 187.524605 83.661752 187.31197 84.798884 187.31197 86.009975 C 187.31197 87.073147 187.506115 88.062359 187.903649 88.949877 C 188.291938 89.837394 188.929841 90.623217 189.817358 91.325834 C 190.704875 92.019207 191.888232 92.573906 193.339692 92.999174 C 194.800398 93.424443 196.593923 93.711037 198.729511 93.858957 C 201.040754 93.997631 202.963708 94.321205 204.489129 94.820434 C 206.014549 95.319662 207.234886 95.96681 208.131648 96.761878 C 209.0469 97.566191 209.684803 98.509178 210.063847 99.618574 C 210.433646 100.718726 210.618545 101.966797 210.618545 103.353543 C 210.618545 104.694064 210.368931 106.02534 209.869703 107.319636 C 209.370474 108.613932 208.612386 109.769554 207.59544 110.786501 C 206.596983 111.803448 205.321176 112.617005 203.768021 113.236419 C 202.224111 113.855832 200.402851 114.170161 198.304242 114.170161 C 195.521506 114.170161 193.145548 113.717157 191.157879 112.820395 C 189.17021 111.905143 187.51536 110.333497 186.193329 108.086969 L 186.091634 108.086969 C 186.193329 108.983731 186.285779 109.797289 186.350493 110.527642 C 186.433698 111.257994 186.470678 111.775713 186.470678 112.090042 C 186.470678 112.912845 186.184084 113.328868 185.610896 113.328868 C 185.361281 113.328868 185.148647 113.171704 185.000727 112.86662 C 184.843563 112.561536 184.760358 112.219472 184.760358 111.831183 C 184.760358 111.507609 184.778848 111.054605 184.815828 110.472172 C 184.852808 109.880494 184.889788 109.26108 184.945258 108.595443 C 185.000727 107.939049 185.037707 107.310391 185.074687 106.709468 C 185.111667 106.0993 185.130157 105.637051 185.130157 105.322722 C 185.130157 104.962168 185.111667 104.472185 185.074687 103.862017 C 185.037707 103.233359 185.000727 102.595456 184.945258 101.929818 C 184.889788 101.273425 184.852808 100.663256 184.815828 100.099313 C 184.778848 99.526125 184.760358 99.137836 184.760358 98.925202 C 184.760358 98.638607 184.825073 98.379748 184.945258 98.157869 C 185.065442 97.926745 185.268832 97.80656 185.555426 97.80656 C 186.054654 97.80656 186.295024 98.102399 186.295024 98.703322 C 186.295024 99.063876 186.276534 99.53537 186.221064 100.127048 C 186.165594 100.700236 186.147104 101.282669 186.147104 101.855858 C 186.147104 105.479887 187.182541 108.234889 189.253415 110.120863 C 191.333533 112.006837 194.19023 112.949824 197.823504 112.949824 C 199.635518 112.949824 201.234899 112.70021 202.612399 112.210227 C 203.999145 111.701753 205.154767 111.00838 206.079264 110.120863 C 207.003761 109.224101 207.706379 108.197909 208.187118 107.023797 C 208.667856 105.849686 208.917471 104.57388 208.917471 103.187134 C 208.917471 100.700236 208.140893 98.823507 206.596983 97.547701 C 205.053072 96.26265 202.547685 95.513807 199.09931 95.291927 C 196.686372 95.153253 194.624743 94.848169 192.914424 94.36743 C 191.213349 93.886692 189.817358 93.258034 188.735696 92.490701 C 187.644789 91.732613 186.858967 90.808116 186.350493 89.717209 C 185.86051 88.635548 185.610896 87.424456 185.610896 86.07469 C 185.610896 84.650964 185.888245 83.319688 186.452188 82.080862 C 187.025376 80.823546 187.820444 79.741884 188.837391 78.826632 C 189.854338 77.89289 191.074674 77.153292 192.507645 76.607839 C 193.949861 76.05314 195.558486 75.775791 197.342765 75.775791 Z M 216.535328 76.570859 C 216.932861 76.570859 217.404355 76.589349 217.968298 76.635574 C 218.541487 76.672553 219.151655 76.709533 219.798803 76.765003 C 220.436706 76.820473 221.074609 76.857453 221.712512 76.894433 C 222.350415 76.931413 222.923603 76.949903 223.413587 76.949903 C 223.912815 76.949903 224.717128 76.940658 225.826525 76.922168 C 226.926676 76.903678 228.156258 76.875943 229.524514 76.838963 C 230.892769 76.811228 232.334985 76.783493 233.841916 76.765003 C 235.348846 76.746513 236.791062 76.718778 238.168563 76.691043 C 239.536818 76.654064 240.738665 76.626329 241.755612 76.607839 C 242.791049 76.580104 243.539891 76.570859 244.011385 76.570859 C 245.037577 76.570859 245.67548 76.718778 245.925094 77.023862 C 246.174709 77.328947 246.304138 77.78195 246.304138 78.392118 C 246.304138 79.38133 246.239423 80.342807 246.109994 81.267305 C 245.989809 82.191802 245.925094 83.116299 245.925094 84.040796 C 245.925094 85.076233 245.989809 86.046955 246.109994 86.962208 C 246.239423 87.85897 246.304138 88.663282 246.304138 89.3659 C 246.304138 90.650951 245.999054 91.2981 245.388886 91.2981 C 245.102292 91.2981 244.898902 91.18716 244.778718 90.956036 C 244.658533 90.724911 244.593818 90.216438 244.593818 89.430615 C 244.593818 89.254961 244.612308 88.811202 244.649288 88.117829 C 244.686268 87.424456 244.714003 86.684858 244.723248 85.908281 C 244.741738 85.122458 244.769473 84.38286 244.806453 83.689487 C 244.843433 82.996114 244.861922 82.543111 244.861922 82.339721 C 244.861922 81.267305 244.797208 80.453747 244.658533 79.889804 C 244.538348 79.316616 244.297979 78.900592 243.918935 78.623243 C 243.549136 78.355138 243.040663 78.197974 242.393515 78.142504 C 241.764857 78.096279 240.914319 78.068544 239.841903 78.068544 L 226.834227 78.068544 C 226.261038 78.068544 225.79879 78.124014 225.447481 78.234954 C 225.086927 78.336648 224.800333 78.549283 224.587698 78.872857 C 224.375064 79.187186 224.236389 79.65868 224.171675 80.278093 C 224.097715 80.906751 224.060735 81.748043 224.060735 82.82046 L 224.060735 91.936003 C 224.060735 92.647865 224.2179 93.091624 224.532229 93.276524 C 224.855803 93.452178 225.318051 93.535383 225.928219 93.535383 L 232.972888 93.535383 C 234.11002 93.535383 234.988292 93.304258 235.59846 92.84201 C 236.227118 92.379761 236.541447 91.630919 236.541447 90.604727 C 236.541447 90.031538 236.495223 89.42137 236.412018 88.774222 C 236.319568 88.108584 236.273343 87.479926 236.273343 86.869758 C 236.273343 86.29657 236.365793 85.908281 236.541447 85.695646 C 236.717102 85.483012 236.902001 85.372072 237.068411 85.372072 C 237.355005 85.372072 237.549149 85.529237 237.660089 85.852811 C 237.761784 86.176385 237.817254 86.564674 237.817254 87.026922 C 237.817254 87.174842 237.798764 87.581621 237.761784 88.265749 C 237.724804 88.931387 237.687824 89.661739 237.632354 90.447562 C 237.576884 91.233385 237.539904 91.972982 237.502925 92.684845 C 237.465945 93.387463 237.447455 93.849712 237.447455 94.071591 C 237.447455 94.321205 237.465945 94.885149 237.502925 95.772666 C 237.539904 96.660183 237.576884 97.603171 237.632354 98.601628 C 237.687824 99.600085 237.724804 100.524582 237.761784 101.375119 C 237.798764 102.225657 237.817254 102.724885 237.817254 102.872805 C 237.817254 103.898997 237.567639 104.416715 237.068411 104.416715 C 236.855777 104.416715 236.670877 104.29653 236.513713 104.037671 C 236.356548 103.788057 236.273343 103.307318 236.273343 102.595456 C 236.273343 101.966797 236.319568 101.273425 236.412018 100.524582 C 236.495223 99.775739 236.541447 99.054631 236.541447 98.342768 C 236.541447 96.798858 236.199383 95.800401 235.524501 95.347397 C 234.849618 94.885149 233.795691 94.654024 232.38121 94.654024 L 226.566122 94.654024 C 225.641625 94.654024 224.994477 94.727984 224.624678 94.875904 C 224.254879 95.014578 224.060735 95.495317 224.060735 96.308874 L 224.060735 108.724872 C 224.060735 109.473715 224.10696 110.056148 224.19941 110.472172 C 224.282614 110.878951 224.430534 111.19328 224.633923 111.415159 C 224.855803 111.618548 225.142397 111.747978 225.493706 111.803448 C 225.85426 111.849673 226.298018 111.877408 226.834227 111.877408 L 240.433581 111.877408 C 241.598447 111.877408 242.522944 111.812693 243.179338 111.674018 C 243.835731 111.526099 244.325714 111.276484 244.649288 110.915931 C 244.972862 110.564622 245.176252 110.074638 245.259456 109.455225 C 245.351906 108.835812 245.388886 108.040744 245.388886 107.079267 C 245.388886 106.00685 245.351906 104.980658 245.259456 103.991446 C 245.176252 102.992989 245.130027 102.105472 245.130027 101.319649 C 245.130027 100.219498 245.416621 99.664799 245.980564 99.664799 C 246.553752 99.664799 246.840347 100.145538 246.840347 101.11626 C 246.840347 101.892838 246.775632 102.706395 246.636957 103.556933 C 246.516772 104.40747 246.461303 105.304232 246.461303 106.22873 C 246.461303 107.264167 246.516772 108.197909 246.636957 109.029956 C 246.775632 109.862004 246.840347 110.638581 246.840347 111.350444 C 246.840347 112.025327 246.683182 112.533801 246.378098 112.86662 C 246.073014 113.208684 245.268701 113.375093 243.94667 113.375093 C 243.669321 113.375093 243.077643 113.365848 242.162391 113.347358 C 241.256383 113.338113 240.165477 113.301133 238.880425 113.264153 C 237.604619 113.227174 236.199383 113.199439 234.673963 113.180949 C 233.148543 113.162459 231.623122 113.134724 230.106947 113.106989 C 228.600016 113.070009 227.148556 113.042274 225.76181 113.023784 C 224.375064 113.005294 223.191708 112.996049 222.193251 112.996049 C 220.59387 112.996049 219.364289 113.060764 218.504507 113.180949 C 217.653969 113.310378 217.053046 113.375093 216.692492 113.375093 C 216.239489 113.375093 215.860445 113.310378 215.573851 113.180949 C 215.296501 113.060764 215.157827 112.857375 215.157827 112.570781 C 215.157827 111.969857 215.620075 111.674018 216.535328 111.674018 C 217.080781 111.674018 217.635479 111.710998 218.217913 111.775713 C 218.809591 111.849673 219.438249 111.877408 220.122377 111.877408 C 220.68632 111.877408 221.139324 111.803448 221.472143 111.646283 C 221.814207 111.479874 222.054576 111.19328 222.193251 110.786501 C 222.34117 110.379722 222.424375 109.815779 222.461355 109.103916 C 222.498335 108.392053 222.516825 107.486046 222.516825 106.385894 L 222.516825 82.598581 C 222.516825 81.674083 222.48909 80.925241 222.43362 80.342807 C 222.387395 79.751129 222.276455 79.288881 222.110046 78.956062 C 221.952881 78.613998 221.712512 78.382873 221.398183 78.262689 C 221.074609 78.133259 220.64934 78.068544 220.122377 78.068544 C 219.475229 78.068544 218.846571 78.105524 218.217913 78.188729 C 217.598499 78.253444 217.034556 78.290424 216.535328 78.290424 C 216.082324 78.290424 215.731015 78.197974 215.499891 78.031564 C 215.268766 77.846665 215.157827 77.643276 215.157827 77.430641 C 215.157827 77.208762 215.268766 77.014617 215.499891 76.838963 C 215.731015 76.663309 216.082324 76.570859 216.535328 76.570859 Z M 266.504402 75.775791 C 269.10224 75.775791 271.293298 76.321245 273.068333 77.402906 C 274.843367 78.484568 276.072949 80.037723 276.757077 82.062372 L 276.858771 82.062372 L 276.904996 80.407522 C 276.904996 80.056213 276.877261 79.64019 276.803301 79.159451 C 276.738587 78.687957 276.701607 78.262689 276.701607 77.91138 C 276.701607 77.486111 276.775566 77.153292 276.932731 76.922168 C 277.089896 76.691043 277.256305 76.570859 277.441204 76.570859 C 277.940433 76.570859 278.180802 77.014617 278.180802 77.91138 C 278.180802 77.976095 278.171557 78.327404 278.134577 78.956062 C 278.097598 79.56623 278.051373 80.250358 278.005148 80.9992 C 277.949678 81.738798 277.903453 82.459906 277.875718 83.162524 C 277.838738 83.855897 277.820248 84.32739 277.820248 84.577005 C 277.820248 84.863599 277.838738 85.270378 277.875718 85.797341 C 277.903453 86.333549 277.949678 86.860513 278.005148 87.405966 C 278.051373 87.93293 278.097598 88.422913 278.134577 88.875917 C 278.171557 89.319675 278.180802 89.58778 278.180802 89.698719 C 278.180802 90.050028 278.097598 90.327377 277.912698 90.530767 C 277.737044 90.715666 277.542899 90.817361 277.33951 90.817361 C 277.15461 90.817361 276.978956 90.724911 276.821791 90.549257 C 276.664627 90.373602 276.581422 90.087008 276.581422 89.698719 C 276.581422 89.301186 276.609157 88.949877 276.664627 88.626303 C 276.720097 88.302729 276.757077 87.91444 276.757077 87.452191 C 276.757077 84.114756 275.860314 81.535409 274.08528 79.723394 C 272.301 77.902135 269.795612 76.996128 266.559872 76.996128 C 264.895777 76.996128 263.435072 77.254987 262.187 77.754215 C 260.938929 78.253444 259.894247 78.900592 259.034465 79.723394 C 258.183927 80.536952 257.546024 81.489184 257.120756 82.570846 C 256.695487 83.661752 256.482853 84.798884 256.482853 86.009975 C 256.482853 87.073147 256.676997 88.062359 257.065286 88.949877 C 257.453575 89.837394 258.091478 90.623217 258.978995 91.325834 C 259.875757 92.019207 261.049869 92.573906 262.510574 92.999174 C 263.97128 93.424443 265.764805 93.711037 267.900393 93.858957 C 270.211636 93.997631 272.125345 94.321205 273.650766 94.820434 C 275.185431 95.319662 276.396523 95.96681 277.30253 96.761878 C 278.208537 97.566191 278.855685 98.509178 279.225484 99.618574 C 279.604528 100.718726 279.789427 101.966797 279.789427 103.353543 C 279.789427 104.694064 279.530568 106.02534 279.03134 107.319636 C 278.541356 108.613932 277.783268 109.769554 276.766322 110.786501 C 275.75862 111.803448 274.482813 112.617005 272.938903 113.236419 C 271.394993 113.855832 269.573733 114.170161 267.465879 114.170161 C 264.692388 114.170161 262.307185 113.717157 260.319516 112.820395 C 258.331847 111.905143 256.676997 110.333497 255.364211 108.086969 L 255.253271 108.086969 C 255.364211 108.983731 255.447416 109.797289 255.521375 110.527642 C 255.595335 111.257994 255.632315 111.775713 255.632315 112.090042 C 255.632315 112.912845 255.345721 113.328868 254.772533 113.328868 C 254.522918 113.328868 254.319529 113.171704 254.162364 112.86662 C 254.0052 112.561536 253.93124 112.219472 253.93124 111.831183 C 253.93124 111.507609 253.94973 111.054605 253.977465 110.472172 C 254.014445 109.880494 254.06067 109.26108 254.106895 108.595443 C 254.162364 107.939049 254.208589 107.310391 254.245569 106.709468 C 254.273304 106.0993 254.291794 105.637051 254.291794 105.322722 C 254.291794 104.962168 254.273304 104.472185 254.245569 103.862017 C 254.208589 103.233359 254.162364 102.595456 254.106895 101.929818 C 254.06067 101.273425 254.014445 100.663256 253.977465 100.099313 C 253.94973 99.526125 253.93124 99.137836 253.93124 98.925202 C 253.93124 98.638607 253.98671 98.379748 254.106895 98.157869 C 254.236324 97.926745 254.439714 97.80656 254.726308 97.80656 C 255.216291 97.80656 255.465906 98.102399 255.465906 98.703322 C 255.465906 99.063876 255.438171 99.53537 255.382701 100.127048 C 255.336476 100.700236 255.308741 101.282669 255.308741 101.855858 C 255.308741 105.479887 256.344178 108.234889 258.424297 110.120863 C 260.504415 112.006837 263.361112 112.949824 266.985141 112.949824 C 268.8064 112.949824 270.396536 112.70021 271.783282 112.210227 C 273.170027 111.701753 274.325649 111.00838 275.240901 110.120863 C 276.174643 109.224101 276.877261 108.197909 277.348755 107.023797 C 277.838738 105.849686 278.079108 104.57388 278.079108 103.187134 C 278.079108 100.700236 277.311775 98.823507 275.767865 97.547701 C 274.214709 96.26265 271.718567 95.513807 268.260947 95.291927 C 265.848009 95.153253 263.786381 94.848169 262.076061 94.36743 C 260.374986 93.886692 258.98824 93.258034 257.897333 92.490701 C 256.815672 91.732613 256.020604 90.808116 255.521375 89.717209 C 255.022147 88.635548 254.772533 87.424456 254.772533 86.07469 C 254.772533 84.650964 255.059127 83.319688 255.62307 82.080862 C 256.196258 80.823546 256.991326 79.741884 258.008273 78.826632 C 259.015975 77.89289 260.245556 77.153292 261.678527 76.607839 C 263.120743 76.05314 264.729368 75.775791 266.504402 75.775791 Z M 266.504402 75.775791 " stroke="#000000" stroke-width="2.850006" stroke-opacity="1" stroke-miterlimit="4"/><path stroke-linecap="butt" transform="matrix(0.000000000000000046, 0.748223, -0.747352, 0.000000000000000046, 121.621963, 38.042232)" fill="none" stroke-linejoin="miter" d="M 0.000984894 0.999479 L 93.895356 0.999479 " stroke="#000000" stroke-width="2" stroke-opacity="1" stroke-miterlimit="4"/></svg>